<?xml version="1.0" encoding="UTF-8"?>
<svg version="1.1" xmlns="http://www.w3.org/2000/svg" width="207" height="210">
<path d="M0 0 C0.99 0 1.98 0 3 0 C4.33838733 2.45570175 5.67086232 4.91429916 7 7.375 C7.3815625 8.07367188 7.763125 8.77234375 8.15625 9.4921875 C11 14.7734375 11 14.7734375 11 17 C12.32 17 13.64 17 15 17 C15 17.66 15 18.32 15 19 C14.34 19 13.68 19 13 19 C13.29656494 19.53254395 13.59312988 20.06508789 13.89868164 20.61376953 C19.19221726 30.13537201 24.40917161 39.65938846 29.22265625 49.43359375 C34.68606797 60.39643969 40.54589992 71.16257829 46.34301758 81.95117188 C46.65622955 82.53406982 46.96944153 83.11696777 47.29214478 83.7175293 C47.93197504 84.90818804 48.57192914 86.09878024 49.21200562 87.28930664 C53.99607155 96.19245199 58.68314597 105.14039844 63.3125 114.125 C67.01750163 121.31514602 70.7607975 128.46346616 74.75 135.5 C79.47951504 143.89287465 83.97136755 152.41226865 88.42321777 160.95483398 C89.26297993 162.56235784 90.10694874 164.16769147 90.9552002 165.77075195 C92.15261123 168.03649342 93.33398233 170.30992073 94.51171875 172.5859375 C94.87885483 173.27372284 95.24599091 173.96150818 95.62425232 174.6701355 C97.59711815 178.53120649 98.09429803 179.62280788 97 184 C33.64 184 -29.72 184 -95 184 C-93.87528345 176.12698413 -93.87528345 176.12698413 -92.06640625 172.828125 C-91.67018066 172.09166748 -91.27395508 171.35520996 -90.86572266 170.59643555 C-90.43565918 169.82211182 -90.0055957 169.04778809 -89.5625 168.25 C-88.64419693 166.55356634 -87.7262375 164.85694663 -86.80859375 163.16015625 C-86.10452393 161.87069092 -86.10452393 161.87069092 -85.38623047 160.55517578 C-83.66769251 157.38747267 -81.99785259 154.19588202 -80.33154297 151.00048828 C-76.28583583 143.24471543 -72.13688492 135.54852418 -67.9375 127.875 C-64.19625417 121.03815077 -60.47135562 114.19386824 -56.8125 107.3125 C-56.43794678 106.6117334 -56.06339355 105.9109668 -55.67749023 105.18896484 C-54.2441198 102.48212727 -52.97062987 99.91188961 -52 97 C-50.64641645 94.52745404 -49.26922691 92.07447282 -47.875 89.625 C-43.2284947 81.36675163 -38.83613281 72.98617587 -34.5 64.5625 C-34.17497498 63.93145355 -33.84994995 63.3004071 -33.51507568 62.65023804 C-32.22381973 60.14303004 -30.93286846 57.63566573 -29.64260864 55.12794495 C-23.22622155 42.6617397 -16.63556938 30.28792947 -10.02734375 17.92263794 C-9.34722412 16.64981781 -8.66753043 15.37676998 -7.98828125 14.10348511 C-7.03545192 12.31813644 -6.08027108 10.53404337 -5.125 8.75 C-4.57070312 7.71359375 -4.01640625 6.6771875 -3.4453125 5.609375 C-2 3 -2 3 0 0 Z " fill="#C5E5D6" transform="translate(101,0)"/>
<path d="M0 0 C0.99 0 1.98 0 3 0 C4.33838733 2.45570175 5.67086232 4.91429916 7 7.375 C7.3815625 8.07367188 7.763125 8.77234375 8.15625 9.4921875 C11 14.7734375 11 14.7734375 11 17 C12.32 17 13.64 17 15 17 C15 17.66 15 18.32 15 19 C14.34 19 13.68 19 13 19 C13.29656494 19.53254395 13.59312988 20.06508789 13.89868164 20.61376953 C19.20001649 30.14940067 24.44753595 39.67832607 29.234375 49.484375 C30.57499114 52.15374342 31.95421556 54.77341914 33.390625 57.390625 C34.0081665 58.52334839 34.0081665 58.52334839 34.63818359 59.67895508 C35.43941691 61.14208366 36.24913348 62.60061143 37.06884766 64.0534668 C39.44270063 68.40518277 40.5111446 71.99236589 41 77 C41.33 77.66 41.66 78.32 42 79 C42.09188942 81.18540811 42.11750236 83.37369969 42.11352539 85.56103516 C42.11367142 86.23432358 42.11381744 86.907612 42.1139679 87.6013031 C42.11327027 89.83058881 42.10548489 92.05979135 42.09765625 94.2890625 C42.09579154 95.83320063 42.09436789 97.37733934 42.09336853 98.92147827 C42.08954754 102.98870472 42.07972082 107.05589555 42.06866455 111.12310791 C42.05844144 115.2721712 42.05386898 119.42124025 42.04882812 123.5703125 C42.03809819 131.71355803 42.02102677 139.85677458 42 148 C40.35310365 147.02262231 38.70751146 146.0430468 37.0625 145.0625 C36.14597656 144.51722656 35.22945313 143.97195312 34.28515625 143.41015625 C32 142 32 142 31 141 C30.89270776 139.36008688 30.85376425 137.71564474 30.84228516 136.07226562 C30.83202301 135.02026978 30.82176086 133.96827393 30.81118774 132.88439941 C30.80388641 131.73661011 30.79658508 130.5888208 30.7890625 129.40625 C30.76097465 126.98957678 30.73231007 124.57291021 30.703125 122.15625 C30.66198321 118.33594076 30.62510917 114.51575304 30.59863281 110.6953125 C30.57089929 107.01536108 30.52500307 103.33597953 30.4765625 99.65625 C30.47330963 98.52465454 30.47005676 97.39305908 30.46670532 96.22717285 C30.31659482 86.46643116 28.76556466 78.95537809 21.96875 71.7265625 C14.08638716 64.8138554 5.07049057 64.38319728 -5 65 C-12.53762118 66.16142083 -18.04291338 70.31627217 -23 76 C-25.42336611 80.1920354 -26.38055631 83.26784825 -26.43237305 88.09716797 C-26.45216721 89.27793915 -26.47196136 90.45871033 -26.49235535 91.67526245 C-26.49874527 92.93484772 -26.50513519 94.19443298 -26.51171875 95.4921875 C-26.53864555 97.44380295 -26.53864555 97.44380295 -26.56611633 99.43484497 C-26.61344821 102.87722787 -26.64336555 106.319546 -26.66955566 109.762146 C-26.69944672 113.2816649 -26.74594743 116.80096101 -26.79101562 120.3203125 C-26.87685683 127.21341436 -26.94428689 134.10659055 -27 141 C-26.4323996 140.9990181 -25.86479919 140.99803619 -25.27999878 140.99702454 C0.93630295 140.95799209 0.93630295 140.95799209 11.60107422 141.15258789 C13.1419748 141.17624569 14.68304797 141.19027131 16.22412109 141.19555664 C32.30565093 141.26071139 32.30565093 141.26071139 39 147 C39 147.33 39 147.66 39 148 C29.15991748 148.13069401 19.31983124 148.26110415 9.47974014 148.39115143 C4.91064521 148.45154581 0.34155161 148.51203814 -4.22753906 148.57275391 C-8.63657585 148.63133922 -13.04561596 148.68966778 -17.45465851 148.74781799 C-19.13717012 148.77005358 -20.8196805 148.79238184 -22.50218964 148.81480408 C-24.85790191 148.84618207 -27.2136183 148.87723125 -29.56933594 148.90820312 C-30.26561096 148.91755386 -30.96188599 148.9269046 -31.67926025 148.9365387 C-34.78669818 148.97707746 -37.89218556 149 -41 149 C-43.21942478 150.21670945 -45.27200074 151.47908412 -47.375 152.875 C-48.78324808 153.78161667 -50.19360364 154.68496394 -51.60546875 155.5859375 C-52.42708496 156.11026367 -53.24870117 156.63458984 -54.09521484 157.17480469 C-59.56804116 160.61360529 -65.10724021 163.94302425 -70.64703369 167.27252197 C-72.66762285 168.48804255 -74.68512914 169.7085728 -76.70263672 170.92919922 C-77.97212639 171.69272267 -79.24181229 172.45591996 -80.51171875 173.21875 C-81.64053467 173.89873047 -82.76935059 174.57871094 -83.93237305 175.27929688 C-86.58596711 176.76775935 -89.14697198 177.95975386 -92 179 C-90.40300859 174.69470871 -88.31254641 170.71349477 -86.125 166.6875 C-85.40574346 165.34662576 -84.68698808 164.00548256 -83.96875 162.6640625 C-82.86888013 160.61477665 -81.76544193 158.56770403 -80.65625 156.5234375 C-79.03091852 153.43284507 -77.92787633 150.68499745 -77.14575195 147.26904297 C-76.07382093 142.83372542 -74.22644901 139.11741656 -72.04296875 135.1328125 C-71.6581282 134.41318329 -71.27328766 133.69355408 -70.87678528 132.95211792 C-69.65526857 130.67186485 -68.42188017 128.39831076 -67.1875 126.125 C-65.96926343 123.86266432 -64.75353586 121.59899421 -63.53811646 119.33514404 C-62.7563006 117.87924326 -61.97350073 116.42387042 -61.18966675 114.96905518 C-58.35425192 109.69701457 -55.62400011 104.38078628 -53 99 C-51.79170236 96.58340471 -50.44772684 94.25056807 -49.11914062 91.89868164 C-44.04882365 82.88732747 -39.23370379 73.75363406 -34.5 64.5625 C-34.17497498 63.93154419 -33.84994995 63.30058838 -33.51507568 62.6505127 C-32.22379668 60.14321991 -30.93289935 57.63573121 -29.64260864 55.12792969 C-23.22618022 42.66175012 -16.63556767 30.28792627 -10.02734375 17.92263794 C-9.34722412 16.64981781 -8.66753043 15.37676998 -7.98828125 14.10348511 C-7.03545192 12.31813644 -6.08027108 10.53404337 -5.125 8.75 C-4.57070312 7.71359375 -4.01640625 6.6771875 -3.4453125 5.609375 C-2 3 -2 3 0 0 Z " fill="#C9E4D0" transform="translate(101,0)"/>
<path d="M0 0 C4.72402989 0.07405615 9.43853819 0.03019374 14.16224003 -0.04478264 C34.47245414 -0.31794912 51.03356554 -0.24731139 67.52825928 12.98771667 C71.44220365 16.0146789 75.70545611 18.49375136 79.9230957 21.06982422 C81.46708442 22.04924615 83.00911334 23.03177312 84.5480957 24.01904297 C87.14411247 25.68094048 89.7457356 27.3322665 92.3605957 28.96435547 C93.3712207 29.59728516 94.3818457 30.23021484 95.4230957 30.88232422 C96.27258789 31.41212891 97.12208008 31.94193359 97.99731445 32.48779297 C98.57094727 32.88611328 99.14458008 33.28443359 99.7355957 33.69482422 C99.7355957 34.02482422 99.7355957 34.35482422 99.7355957 34.69482422 C37.6955957 34.69482422 -24.3444043 34.69482422 -88.2644043 34.69482422 C-85.43776987 31.86818979 -82.98885188 30.18111744 -79.5847168 28.14013672 C-79.01727753 27.79788055 -78.44983826 27.45562439 -77.86520386 27.10299683 C-76.04237368 26.00449387 -74.21610859 24.91187043 -72.3894043 23.81982422 C-70.64271073 22.77151443 -68.89690803 21.72188259 -67.15397644 20.66732788 C-65.91209303 19.92347068 -64.66290732 19.19170441 -63.40766907 18.47061157 C-59.70897016 16.31534226 -56.39489337 14.03086861 -53.10888672 11.28222656 C-37.13270744 -1.34085806 -19.42968802 -0.30772163 0 0 Z " fill="#5FC092" transform="translate(96.264404296875,148.30517578125)"/>
<path d="M0 0 C0 2.31 0 4.62 0 7 C-0.59167969 7.15855469 -1.18335937 7.31710938 -1.79296875 7.48046875 C-8.25882063 9.38963545 -11.86001277 11.6912932 -15.60083008 17.47509766 C-17.54638134 22.37648818 -17.47892556 26.85654703 -17.51171875 32.0859375 C-17.52966995 33.14285797 -17.54762115 34.19977844 -17.56611633 35.28872681 C-17.62011938 38.6507778 -17.65408362 42.0126876 -17.6875 45.375 C-17.72068183 47.66017585 -17.75517229 49.9453331 -17.79101562 52.23046875 C-17.87584009 57.82018588 -17.94423229 63.40992151 -18 69 C-16.80292797 68.02592627 -16.80292797 68.02592627 -16.90666199 66.22520447 C-16.92094742 65.45213455 -16.93523285 64.67906464 -16.94995117 63.88256836 C-16.96293747 63.00753159 -16.97592377 62.13249481 -16.98930359 61.23094177 C-17.00701309 60.27687943 -17.0247226 59.32281708 -17.04296875 58.33984375 C-17.06537582 56.32878611 -17.08682914 54.31771766 -17.10742188 52.30664062 C-17.14439091 49.12901704 -17.18722909 45.9519429 -17.24682617 42.7746582 C-17.30161445 39.7129744 -17.33050478 36.65189763 -17.35546875 33.58984375 C-17.37925095 32.64995102 -17.40303314 31.71005829 -17.42753601 30.74168396 C-17.45562155 23.60375003 -15.82671511 18.45917648 -11.2890625 12.90625 C-8.21179328 10.3057408 -6.67967773 9.07414666 -2.5625 8.625 C-1.2940625 8.810625 -1.2940625 8.810625 0 9 C0 10.98 0 12.96 0 15 C-1.11375 15.3403125 -1.11375 15.3403125 -2.25 15.6875 C-6.09146563 17.52092678 -8.11488412 20.22976824 -10 24 C-10.15745826 27.0604194 -10.25866877 30.101419 -10.31640625 33.1640625 C-10.33718735 34.07127045 -10.35796844 34.97847839 -10.37937927 35.91317749 C-10.44487135 38.8170398 -10.50375814 41.72099405 -10.5625 44.625 C-10.60568555 46.59115542 -10.64929985 48.55730147 -10.69335938 50.5234375 C-10.80136093 55.34886539 -10.90043677 60.17436101 -11 65 C-3.41 65 4.18 65 12 65 C11.94888173 59.26964171 11.88585385 53.54196794 11.79248047 47.8125 C11.76431679 45.86499755 11.7430794 43.91738178 11.72900391 41.96972656 C11.70751054 39.16412532 11.66082802 36.35988 11.609375 33.5546875 C11.60814636 32.68883026 11.60691772 31.82297302 11.60565186 30.93087769 C11.47523008 25.5046522 10.66698164 22.26822107 7 18 C3.89985071 16.11431306 3.89985071 16.11431306 1 15 C1 13.02 1 11.04 1 9 C6.41507756 9.22102357 9.2636381 10.51183235 13.421875 13.94140625 C18.20013617 20.17443505 18.41027969 26.85439522 18.2578125 34.37109375 C18.24788773 35.81549583 18.24788773 35.81549583 18.23776245 37.28907776 C18.21450851 40.33888892 18.17077817 43.38795108 18.125 46.4375 C18.08996217 49.51194946 18.05922354 52.58636119 18.03366089 55.66090393 C18.01664473 57.56847199 17.99347119 59.47599668 17.96365356 61.38340759 C17.94901566 62.66593163 17.94901566 62.66593163 17.93408203 63.97436523 C17.91717819 65.10732277 17.91717819 65.10732277 17.89993286 66.26316833 C17.80853043 68.03028501 17.80853043 68.03028501 19 69 C18.93289582 62.27356916 18.84304806 55.54771479 18.73754883 48.82177734 C18.70433994 46.53473774 18.67629549 44.24761697 18.65356445 41.96044922 C18.6199449 38.66859422 18.56762376 35.37748028 18.51171875 32.0859375 C18.50532883 31.06696381 18.4989389 30.04799011 18.49235535 28.99813843 C18.36251981 22.69766329 17.6867164 18.11233484 13.421875 13.171875 C9.39199088 9.74459038 6.19704532 8.06062149 1 7 C1 4.69 1 2.38 1 0 C8.80301072 -0.66408602 14.85020343 2.01852052 20.875 6.9375 C25.42689427 11.12060654 27.82982928 15.36459557 28.12025452 21.56903076 C28.11803391 22.53721741 28.11581329 23.50540405 28.11352539 24.50292969 C28.11344986 25.60376892 28.11337433 26.70460815 28.11329651 27.83880615 C28.10813522 29.02121887 28.10297394 30.20363159 28.09765625 31.421875 C28.0962413 32.63699768 28.09482635 33.85212036 28.09336853 35.10406494 C28.08776988 38.98606831 28.0752176 42.86801406 28.0625 46.75 C28.05748483 49.38150958 28.05292195 52.01302007 28.04882812 54.64453125 C28.03780089 61.09637383 28.02106408 67.5481828 28 74 C25.21086102 75.39456949 22.91601148 75.12974852 19.796875 75.1328125 C17.85748047 75.13474609 17.85748047 75.13474609 15.87890625 75.13671875 C15.19715332 75.13462402 14.51540039 75.1325293 13.81298828 75.13037109 C11.82715404 75.12520087 9.84130073 75.13074333 7.85546875 75.13671875 C-3.78039502 75.12534449 -15.38087929 74.59504876 -27 74 C-27.12736747 66.35044242 -27.21458927 58.70116097 -27.2746582 51.05078125 C-27.29971449 48.45139344 -27.33376892 45.85207547 -27.37719727 43.25292969 C-27.43823684 39.50438141 -27.46630035 35.75676922 -27.48828125 32.0078125 C-27.51408768 30.85636749 -27.5398941 29.70492249 -27.56648254 28.51858521 C-27.5693363 20.20348766 -25.99369752 13.37357157 -20.25801086 7.09231567 C-14.21733003 1.43336482 -8.12522997 -0.42764368 0 0 Z " fill="#ACDABB" transform="translate(102,66)"/>
<path d="M0 0 C0.99 0 1.98 0 3 0 C3.3723086 8.4317133 3.65573494 16.85994925 3.82899475 25.29787254 C3.91220277 29.21733951 4.02476737 33.13115292 4.20703125 37.04736328 C5.34173614 62.10303875 5.34173614 62.10303875 1.63070679 68.27868652 C-1.90858643 71.83520335 -6.08651539 73.5259661 -10.76568604 75.14776611 C-14.45792502 76.55609602 -17.63756509 78.71564481 -20.94921875 80.84375 C-22.23876606 81.62697547 -23.53108118 82.40566263 -24.82617188 83.1796875 C-27.44616958 84.75321576 -30.06287288 86.33201525 -32.67773438 87.9140625 C-33.95552813 88.68262601 -35.23351534 89.450868 -36.51171875 90.21875 C-37.64053467 90.89873047 -38.76935059 91.57871094 -39.93237305 92.27929688 C-42.58596711 93.76775935 -45.14697198 94.95975386 -48 96 C-46.40300859 91.69470871 -44.31254641 87.71349477 -42.125 83.6875 C-41.40574346 82.34662576 -40.68698808 81.00548256 -39.96875 79.6640625 C-38.86888013 77.61477665 -37.76544193 75.56770403 -36.65625 73.5234375 C-35.03091852 70.43284507 -33.92787633 67.68499745 -33.14575195 64.26904297 C-32.07382093 59.83372542 -30.22644901 56.11741656 -28.04296875 52.1328125 C-27.6581282 51.41318329 -27.27328766 50.69355408 -26.87678528 49.95211792 C-25.65526857 47.67186485 -24.42188017 45.39831076 -23.1875 43.125 C-21.96926343 40.86266432 -20.75353586 38.59899421 -19.53811646 36.33514404 C-18.7563006 34.87924326 -17.97350073 33.42387042 -17.18966675 31.96905518 C-14.35425192 26.69701457 -11.62400011 21.38078628 -9 16 C-7.4431828 12.8863656 -5.66831868 9.89421738 -3.9375 6.875 C-3.56044922 6.21628906 -3.18339844 5.55757813 -2.79492188 4.87890625 C-1.86376445 3.25232746 -0.93194518 1.62612758 0 0 Z " fill="#058250" transform="translate(57,83)"/>
<path d="M0 0 C2.96066248 2.79950591 4.52401929 5.64961149 6.37109375 9.30078125 C6.68958282 9.92523132 7.0080719 10.5496814 7.33621216 11.1930542 C8.0195952 12.53374566 8.70050743 13.87569888 9.37918091 15.21878052 C11.16473365 18.75121851 12.96888085 22.27411658 14.7734375 25.796875 C15.31343132 26.85208092 15.31343132 26.85208092 15.86433411 27.92860413 C18.9954382 34.02960194 22.2491078 40.05855387 25.5625 46.0625 C29.31458013 52.86905907 32.91800014 59.70614735 36.34375 66.68359375 C38.55950247 71.12032453 40.89597299 75.48816739 43.24902344 79.85327148 C49.21914348 90.93954608 49.21914348 90.93954608 50 95 C44.9350733 93.25382567 40.55263861 90.45684495 36 87.6875 C35.13439453 87.16422119 34.26878906 86.64094238 33.37695312 86.10180664 C26.73357779 82.07607857 20.11177968 78.01487989 13.5 73.9375 C12.61054688 73.38989014 11.72109375 72.84228027 10.8046875 72.27807617 C9.55558594 71.50427612 9.55558594 71.50427612 8.28125 70.71484375 C7.54970703 70.26230225 6.81816406 69.80976074 6.06445312 69.34350586 C5.38318359 68.90014893 4.70191406 68.45679199 4 68 C3.3067865 67.60737976 2.613573 67.21475952 1.89935303 66.8102417 C0 65 0 65 -0.48101807 62.17158508 C-0.47213562 61.0235289 -0.46325317 59.87547272 -0.45410156 58.69262695 C-0.45379944 57.39150467 -0.45349731 56.09038239 -0.45318604 54.74983215 C-0.43275932 53.32930898 -0.41189533 51.90879204 -0.390625 50.48828125 C-0.38316369 49.0352608 -0.37747024 47.58223028 -0.37347412 46.12919617 C-0.35820878 42.30667285 -0.3189202 38.48475847 -0.2746582 34.66247559 C-0.23372432 30.76139565 -0.21546719 26.86021722 -0.1953125 22.95898438 C-0.15242596 15.30571211 -0.08416485 7.65294141 0 0 Z " fill="#05814E" transform="translate(145,84)"/>
<path d="M0 0 C11.58392328 -0.92261336 22.05641421 2.56475705 31 10 C35.73402569 14.59906443 39.63237881 19.59545738 40.36076355 26.34103394 C40.35410172 27.55348785 40.34743988 28.76594177 40.34057617 30.01513672 C40.34123329 31.02594551 40.34123329 31.02594551 40.34190369 32.05717468 C40.33982837 34.26498285 40.31655851 36.47201346 40.29296875 38.6796875 C40.28736828 40.21810491 40.28310031 41.7565277 40.28010559 43.29495239 C40.26869219 47.32937587 40.23925568 51.3634715 40.20599365 55.39776611 C40.1752168 59.52034064 40.16158404 63.64296852 40.14648438 67.765625 C40.11438219 75.84389987 40.06322882 83.92190906 40 92 C38.35310365 91.02262231 36.70751146 90.0430468 35.0625 89.0625 C34.14597656 88.51722656 33.22945312 87.97195312 32.28515625 87.41015625 C30 86 30 86 29 85 C28.89270776 83.36008688 28.85376425 81.71564474 28.84228516 80.07226562 C28.83202301 79.02026978 28.82176086 77.96827393 28.81118774 76.88439941 C28.80388641 75.73661011 28.79658508 74.5888208 28.7890625 73.40625 C28.76097465 70.98957678 28.73231007 68.57291021 28.703125 66.15625 C28.66198321 62.33594076 28.62510917 58.51575304 28.59863281 54.6953125 C28.57089929 51.01536108 28.52500307 47.33597953 28.4765625 43.65625 C28.47330963 42.52465454 28.47005676 41.39305908 28.46670532 40.22717285 C28.31675667 30.47695527 26.78184355 22.91674645 19.9453125 15.72265625 C14.14576802 10.58691505 7.4985614 9.16780874 0 8 C0 5.36 0 2.72 0 0 Z " fill="#42B06D" transform="translate(103,56)"/>
<path d="M0 0 C0 2.64 0 5.28 0 8 C-1.2684375 8.22042969 -1.2684375 8.22042969 -2.5625 8.4453125 C-11.59722948 10.23172492 -17.01801923 12.80277703 -23.3125 19.4375 C-28.25134119 26.9372218 -28.36013668 32.89437969 -28.1953125 41.72265625 C-28.18834585 44.2246051 -28.18319236 46.72655953 -28.1796875 49.22851562 C-28.15901741 53.15509539 -28.12470514 57.08001062 -28.05859375 61.00610352 C-28.00149834 64.80841962 -28.00048593 68.60749205 -28.0078125 72.41015625 C-27.97382355 73.5821608 -27.93983459 74.75416534 -27.90481567 75.96168518 C-27.97478535 83.9173249 -27.97478535 83.9173249 -30.99993896 87.11203003 C-36.65737061 91 -36.65737061 91 -40 91 C-40.11625314 82.28945031 -40.20489584 73.57917087 -40.25906086 64.86801243 C-40.2850679 60.82229112 -40.32030046 56.77710362 -40.37719727 52.73168945 C-40.43183849 48.82183076 -40.4614873 44.91248293 -40.47438622 41.00227165 C-40.48356901 39.51639713 -40.5015004 38.0305481 -40.52865028 36.54489326 C-40.70734349 26.35413707 -39.66727439 19.33761901 -32.82421875 11.51171875 C-22.58779095 2.77239191 -13.43134313 -0.49541839 0 0 Z " fill="#3DB06C" transform="translate(102,56)"/>
<path d="M0 0 C3.59059983 0.99738884 4.91172765 1.88720756 7.25 4.875 C10.10074033 9.96560773 10.13756938 14.28614422 10.09765625 20.046875 C10.0962413 20.81807678 10.09482635 21.58927856 10.09336853 22.3838501 C10.08778534 24.83927338 10.07523595 27.29460442 10.0625 29.75 C10.05748283 31.41796743 10.0529203 33.08593629 10.04882812 34.75390625 C10.03782141 38.83597287 10.02056836 42.91797081 10 47 C6.2776599 48.24078003 2.81203967 48.14555459 -1.0625 48.125 C-1.79533203 48.12886719 -2.52816406 48.13273437 -3.28320312 48.13671875 C-8.74663018 48.12668491 -8.74663018 48.12668491 -11 47 C-11.04962457 42.12534043 -11.08582554 37.25082959 -11.10986328 32.37597656 C-11.11988957 30.71937497 -11.13351406 29.06279093 -11.15087891 27.40625 C-11.17527621 25.01818495 -11.18651694 22.63035492 -11.1953125 20.2421875 C-11.20563507 19.50757294 -11.21595764 18.77295837 -11.22659302 18.01608276 C-11.22783961 12.23730631 -10.28383384 7.96854522 -7.125 3.125 C-6.42375 2.42375 -5.7225 1.7225 -5 1 C-3.68 1 -2.36 1 -1 1 C-0.58823246 4.60296594 -0.8464147 5.78402067 -3 8.8125 C-3.66 9.534375 -4.32 10.25625 -5 11 C-4.67 10.67 -4.34 10.34 -4 10 C-3.01 9.34 -2.02 8.68 -1 8 C-0.87641546 12.78709468 -0.78567229 17.57326181 -0.7253418 22.36157227 C-0.70019432 23.9903175 -0.66607122 25.61894985 -0.62280273 27.24731445 C-0.5621545 29.58833634 -0.53379524 31.92786731 -0.51171875 34.26953125 C-0.48591232 34.99775589 -0.4601059 35.72598053 -0.43351746 36.47627258 C-0.43237305 38.53833008 -0.43237305 38.53833008 -1 42 C-3.53051758 43.9831543 -3.53051758 43.9831543 -6 45 C-1.545 44.505 -1.545 44.505 3 44 C2.01 43.34 1.02 42.68 0 42 C-0.26697888 39.37537756 -0.34832984 36.98934067 -0.29296875 34.3671875 C-0.28872391 33.61535187 -0.28447906 32.86351624 -0.28010559 32.08889771 C-0.2632917 29.68390315 -0.22563624 27.27974191 -0.1875 24.875 C-0.17245659 23.24610584 -0.15876758 21.61719856 -0.14648438 19.98828125 C-0.11337954 15.99186566 -0.06158009 11.99607418 0 8 C0.99 8.66 1.98 9.32 3 10 C1.2941742 7.22880216 1.2941742 7.22880216 0 6 C-0.04080783 4.00041636 -0.04254356 1.99954746 0 0 Z " fill="#ABD9B7" transform="translate(103,82)"/>
<path d="M0 0 C2.074859 2.76647866 3.64638941 5.02430703 5.19921875 8.01953125 C5.59995605 8.78740967 6.00069336 9.55528809 6.41357422 10.34643555 C6.83396973 11.16023682 7.25436523 11.97403809 7.6875 12.8125 C8.5790313 14.52364377 9.47096353 16.2345787 10.36328125 17.9453125 C11.0277124 19.22196777 11.0277124 19.22196777 11.70556641 20.52441406 C13.57094966 24.09193316 15.47153634 27.64019801 17.375 31.1875 C19.30433718 34.78693283 21.21689983 38.38776314 23 42.0625 C24.2413425 44.618872 25.61235713 47.07042661 27.05078125 49.51953125 C27.42138672 50.1530249 27.79199219 50.78651855 28.17382812 51.43920898 C28.92436933 52.71516122 29.6820396 53.98695058 30.44726562 55.25415039 C31.35818291 56.80232525 32.18660717 58.39843583 33 60 C32.505 60.99 32.505 60.99 32 62 C31.34 61.4225 30.68 60.845 30 60.25 C20.99728902 53.49796677 10.93563409 51.82260568 0 50 C0 33.5 0 17 0 0 Z " fill="#088653" transform="translate(103,4)"/>
<path d="M0 0 C0.66 0 1.32 0 2 0 C2 15.51 2 31.02 2 47 C-3.28 47.99 -8.56 48.98 -14 50 C-18.20915408 51.9097088 -22.03523838 53.73352003 -26 56 C-27.3288443 56.67557017 -28.66046594 57.34588173 -30 58 C-29.13636067 56.27272135 -28.27266253 54.54547208 -27.40869141 52.81835938 C-26.67425232 51.34882692 -25.9408638 49.87876898 -25.20849609 48.40820312 C-23.63743139 45.25633714 -22.058888 42.11251553 -20.42578125 38.9921875 C-17.82137911 34.002372 -16.25040996 29.48256675 -15 24 C-14.34 23.01 -13.68 22.02 -13 21 C-12.01 21 -11.02 21 -10 21 C-9.7525 20.34 -9.505 19.68 -9.25 19 C-7.68102205 15.23445292 -5.84738882 11.63497009 -4 8 C-3.24897838 6.50051125 -2.49893749 5.00053079 -1.75 3.5 C-1.1725 2.345 -0.595 1.19 0 0 Z " fill="#098654" transform="translate(99,7)"/>
<path d="M0 0 C7.80301072 -0.66408602 13.85020343 2.01852052 19.875 6.9375 C24.42689427 11.12060654 26.82982928 15.36459557 27.12025452 21.56903076 C27.1169236 23.02131073 27.1169236 23.02131073 27.11352539 24.50292969 C27.11344986 25.60376892 27.11337433 26.70460815 27.11329651 27.83880615 C27.10813522 29.02121887 27.10297394 30.20363159 27.09765625 31.421875 C27.0962413 32.63699768 27.09482635 33.85212036 27.09336853 35.10406494 C27.08776988 38.98606831 27.0752176 42.86801406 27.0625 46.75 C27.05748483 49.38150958 27.05292195 52.01302007 27.04882812 54.64453125 C27.03780089 61.09637383 27.02106408 67.5481828 27 74 C23.61301515 72.74799308 20.75146281 71.36245842 18 69 C16.70185066 65.41966385 16.88023323 61.99614852 17.0078125 58.22265625 C17.005466 57.17855087 17.00311951 56.1344455 17.0007019 55.05870056 C16.99998579 51.72486877 17.0595548 48.39563375 17.125 45.0625 C17.1586931 41.73386204 17.17958929 38.4058148 17.18502808 35.07701111 C17.1917478 33.00782405 17.21646528 30.93859603 17.26150513 28.86988831 C17.32342815 22.55114535 16.70308674 18.13129851 12.421875 13.171875 C8.39199088 9.74459038 5.19704532 8.06062149 0 7 C0 4.69 0 2.38 0 0 Z " fill="#42B370" transform="translate(103,66)"/>
<path d="M0 0 C0 2.31 0 4.62 0 7 C-0.59167969 7.15855469 -1.18335937 7.31710938 -1.79296875 7.48046875 C-7.86084179 9.27212457 -11.79961534 11.16195159 -15.0770874 16.87872314 C-18.00970477 22.92327387 -18.50034448 27.89280842 -18.328125 34.546875 C-18.32312506 36.54557048 -18.31925174 38.54426904 -18.31640625 40.54296875 C-18.28929679 43.65957076 -18.24951472 46.77497442 -18.18896484 49.89111328 C-18.13807535 52.92308099 -18.13628223 55.95205447 -18.140625 58.984375 C-18.10866028 59.91465515 -18.07669556 60.8449353 -18.04376221 61.80340576 C-18.06343595 64.43889569 -18.1491206 66.50283838 -19 69 C-21.41644502 71.27431063 -23.96491928 72.69115712 -27 74 C-27.12736747 66.35044242 -27.21458927 58.70116097 -27.2746582 51.05078125 C-27.29971449 48.45139344 -27.33376892 45.85207547 -27.37719727 43.25292969 C-27.43823684 39.50438141 -27.46630035 35.75676922 -27.48828125 32.0078125 C-27.51408768 30.85636749 -27.5398941 29.70492249 -27.56648254 28.51858521 C-27.5693363 20.20348766 -25.99369752 13.37357157 -20.25801086 7.09231567 C-14.21733003 1.43336482 -8.12522997 -0.42764368 0 0 Z " fill="#3DAF6B" transform="translate(102,66)"/>
<path d="M0 0 C4.48562373 3.23026146 8.8293751 6.79050023 11 12 C10.505 13.485 10.505 13.485 10 15 C9.64808594 14.40832031 9.29617187 13.81664063 8.93359375 13.20703125 C4.30278017 5.79531134 -0.34045183 1.16488704 -9 -1 C-11.32694964 -1.37531446 -13.65976685 -1.71917202 -16 -2 C-16 0.31 -16 2.62 -16 5 C-15.01 5.020625 -14.02 5.04125 -13 5.0625 C-7.8369248 5.79708387 -4.31710689 9.15648267 -1 13 C2.648327 18.57838082 2.3906629 23.65680453 2.29296875 30.0859375 C2.28872391 31.14285797 2.28447906 32.19977844 2.28010559 33.28872681 C2.26336702 36.6510814 2.22572289 40.01282779 2.1875 43.375 C2.17244697 45.66014757 2.15875964 47.94530457 2.14648438 50.23046875 C2.1134793 55.8205186 2.06332772 61.41021584 2 67 C1.01 66.67 0.02 66.34 -1 66 C-0.34 66 0.32 66 1 66 C0.9308691 59.87981477 0.84277873 53.7602962 0.73754883 47.640625 C0.7044124 45.5612735 0.67634576 43.48183448 0.65356445 41.40234375 C0.61981049 38.40326854 0.5674844 35.40498713 0.51171875 32.40625 C0.50532883 31.48509399 0.4989389 30.56393799 0.49235535 29.61486816 C0.33044202 22.41407052 -0.58602408 16.5237021 -5.75 11.125 C-9.29299638 8.80842545 -11.90829234 7.90017569 -16 7 C-16 8.98 -16 10.96 -16 13 C-15.278125 13.04125 -14.55625 13.0825 -13.8125 13.125 C-9.7314785 14.39465113 -8.51468974 16.57722785 -6 20 C-4.28197618 23.43604765 -4.8803382 27.38438896 -4.90234375 31.1640625 C-4.9037587 32.07127045 -4.90517365 32.97847839 -4.90663147 33.91317749 C-4.91223904 36.81715155 -4.92479282 39.72104915 -4.9375 42.625 C-4.94251402 44.59114472 -4.9470771 46.55729065 -4.95117188 48.5234375 C-4.96136101 53.34901166 -4.98093493 58.17442 -5 63 C-12.59 63 -20.18 63 -28 63 C-28.09200675 57.27002407 -28.17159041 51.54262704 -28.21972656 45.8125 C-28.23979906 43.86482034 -28.26706332 41.91720063 -28.30175781 39.96972656 C-28.35046852 37.16456279 -28.37301241 34.36019813 -28.390625 31.5546875 C-28.41127014 30.68883026 -28.43191528 29.82297302 -28.45318604 28.93087769 C-28.45521228 23.42874704 -27.61215911 20.39885634 -24 16 C-23.505 15.38125 -23.01 14.7625 -22.5 14.125 C-21 13 -21 13 -17 13 C-17 11.02 -17 9.04 -17 7 C-23.06371115 7.9409207 -25.92287757 9.26447072 -29.7734375 14.05078125 C-33.32127423 19.68890396 -33.33582824 24.84019083 -33.4140625 31.33203125 C-33.43342865 32.32377853 -33.4527948 33.31552582 -33.4727478 34.33732605 C-33.53238453 37.4956307 -33.57886555 40.6539721 -33.625 43.8125 C-33.6631944 45.95769792 -33.70224698 48.10288075 -33.7421875 50.24804688 C-33.83807292 55.49856362 -33.92316678 60.74917176 -34 66 C-33.34 66.33 -32.68 66.66 -32 67 C-32.99 67 -33.98 67 -35 67 C-35.10181508 60.31067983 -35.17163915 53.62156113 -35.21972656 46.93164062 C-35.23978317 44.65812716 -35.26703538 42.3846649 -35.30175781 40.11132812 C-35.35053712 36.83450651 -35.37302897 33.55836975 -35.390625 30.28125 C-35.41127014 29.27259888 -35.43191528 28.26394775 -35.45318604 27.22473145 C-35.45515972 20.95078034 -34.60729332 16.22998365 -31 11 C-28.81640625 8.90625 -28.81640625 8.90625 -26.5625 7.5 C-25.82128906 7.0153125 -25.08007812 6.530625 -24.31640625 6.03125 C-21.69537337 4.86438207 -19.8380691 4.79978349 -17 5 C-17 2.69 -17 0.38 -17 -2 C-27.10079791 -0.7559679 -33.28457609 2.49011108 -41 9 C-38.39038611 3.16303754 -33.80681357 -0.5700043 -27.875 -2.875 C-18.39491913 -5.57205878 -8.55852676 -4.99490811 0 0 Z M-16 14 C-16.36630156 17.93774177 -16.30233203 19.56539771 -14 22.875 C-13.34 23.57625 -12.68 24.2775 -12 25 C-12.33 24.67 -12.66 24.34 -13 24 C-13.99 23.34 -14.98 22.68 -16 22 C-16.07405295 26.80546679 -16.12855497 31.6106029 -16.16479492 36.41650391 C-16.17989911 38.05197941 -16.20038389 39.68741429 -16.22631836 41.32275391 C-16.26263145 43.67100024 -16.27970932 46.01871205 -16.29296875 48.3671875 C-16.30845261 49.10057343 -16.32393646 49.83395935 -16.33988953 50.58956909 C-16.37554636 52.8708092 -16.37554636 52.8708092 -16 56 C-15.01 56.66 -14.02 57.32 -13 58 C-17.455 58.495 -17.455 58.495 -22 59 C-21.1850708 58.66444092 -20.3701416 58.32888184 -19.53051758 57.9831543 C-16.62653412 56.16814219 -16.62653412 56.16814219 -16.43237305 52.53833008 C-16.43316289 51.11515157 -16.46131656 49.69181719 -16.51171875 48.26953125 C-16.51879349 47.51911057 -16.52586823 46.76868988 -16.53315735 45.99552917 C-16.56113343 43.60016905 -16.62386991 41.20715253 -16.6875 38.8125 C-16.71257908 37.18818482 -16.73539294 35.56383297 -16.75585938 33.93945312 C-16.81096957 29.95873329 -16.89725767 25.97976385 -17 22 C-17.99 22.66 -18.98 23.32 -20 24 C-18 21 -18 21 -17 20 C-16.95936168 18.33382885 -16.957279 16.66611905 -17 15 C-20.44830801 15.287359 -21.76218649 15.76218649 -24.25 18.25 C-27.42839366 23.2446186 -27.1379181 28.37373211 -27.09765625 34.14453125 C-27.0962413 34.91431808 -27.09482635 35.68410492 -27.09336853 36.47721863 C-27.08779606 38.92235288 -27.07524871 41.36739368 -27.0625 43.8125 C-27.05748144 45.47591013 -27.05291915 47.1393217 -27.04882812 48.80273438 C-27.03783566 52.86852528 -27.0205901 56.93424683 -27 61 C-23.85694562 62.57152719 -20.508726 62.14318589 -17.0625 62.125 C-16.33353516 62.12886719 -15.60457031 62.13273437 -14.85351562 62.13671875 C-11.64142264 62.1308304 -9.0678556 62.02261853 -6 61 C-5.92536283 56.16198021 -5.87116986 51.32430196 -5.83520508 46.48583984 C-5.82019864 44.84287674 -5.79978688 43.19995314 -5.77368164 41.55712891 C-5.73693641 39.18381958 -5.72019228 36.81104375 -5.70703125 34.4375 C-5.69154739 33.71320801 -5.67606354 32.98891602 -5.66011047 32.24267578 C-5.65837497 26.8803558 -6.78362783 22.89875924 -9 18 C-12.00042472 14.86217643 -12.00042472 14.86217643 -16 14 Z " fill="#DBECDC" transform="translate(119,68)"/>
<path d="M0 0 C0 1.98 0 3.96 0 6 C-0.7425 6.226875 -1.485 6.45375 -2.25 6.6875 C-6.09146563 8.52092678 -8.11488412 11.22976824 -10 15 C-10.15745826 18.0604194 -10.25866877 21.101419 -10.31640625 24.1640625 C-10.33718735 25.07127045 -10.35796844 25.97847839 -10.37937927 26.91317749 C-10.44487135 29.8170398 -10.50375814 32.72099405 -10.5625 35.625 C-10.60568555 37.59115542 -10.64929985 39.55730147 -10.69335938 41.5234375 C-10.80055239 46.34886362 -10.90182081 51.1743824 -11 56 C-10.31897217 55.98428955 -9.63794434 55.9685791 -8.9362793 55.95239258 C-5.85343719 55.89006778 -2.77072756 55.85101742 0.3125 55.8125 C1.38435547 55.78736328 2.45621094 55.76222656 3.56054688 55.73632812 C4.58857422 55.72666016 5.61660156 55.71699219 6.67578125 55.70703125 C8.0975769 55.68346558 8.0975769 55.68346558 9.5480957 55.65942383 C12 56 12 56 15 59 C4.44 59 -6.12 59 -17 59 C-17.09210223 52.73704821 -17.17165986 46.47646969 -17.21972656 40.21337891 C-17.23977468 38.08536798 -17.26702054 35.95741168 -17.30175781 33.82958984 C-17.35057548 30.76125567 -17.37303726 27.69365327 -17.390625 24.625 C-17.41127014 23.68197021 -17.43191528 22.73894043 -17.45318604 21.76733398 C-17.45558237 14.62627092 -15.82975002 9.46289043 -11.2890625 3.90625 C-7.49084673 0.6964902 -5.20116778 -0.7611465 0 0 Z " fill="#44B271" transform="translate(102,75)"/>
<path d="M0 0 C1.73276436 -0.02398109 1.73276436 -0.02398109 3.50053406 -0.04844666 C4.75050674 -0.05380936 6.00047943 -0.05917206 7.28833008 -0.06469727 C8.5746785 -0.07372574 9.86102692 -0.08275421 11.18635559 -0.09205627 C13.91251124 -0.10854741 16.63854413 -0.11624581 19.36474609 -0.11914062 C22.84060221 -0.12450648 26.31528612 -0.16210807 29.79081249 -0.20788479 C33.12331081 -0.24498979 36.45563246 -0.24617943 39.78833008 -0.25219727 C41.64810738 -0.28149574 41.64810738 -0.28149574 43.54545593 -0.31138611 C50.65985131 -0.27445896 55.97533482 0.3384695 61.37036133 5.30639648 C61.37036133 5.63639648 61.37036133 5.96639648 61.37036133 6.30639648 C36.62036133 6.30639648 11.87036133 6.30639648 -13.62963867 6.30639648 C-5.82276465 0.06089727 -5.82276465 0.06089727 0 0 Z " fill="#3BAD66" transform="translate(78.629638671875,141.693603515625)"/>
<path d="M0 0 C5.41507756 0.22102357 8.2636381 1.51183235 12.421875 4.94140625 C17.14848774 11.10706198 17.42109974 17.74581862 17.29296875 25.1875 C17.28872391 26.13061035 17.28447906 27.0737207 17.28010559 28.04541016 C17.2634357 31.03057518 17.22580575 34.01504218 17.1875 37 C17.17243804 39.03514644 17.15875229 41.07030355 17.14648438 43.10546875 C17.11357055 48.0705777 17.06186999 53.03517087 17 58 C15.35 57.34 13.7 56.68 12 56 C11.9906543 54.89076172 11.98130859 53.78152344 11.97167969 52.63867188 C11.93157898 48.49341794 11.86576602 44.3488906 11.79248047 40.20410156 C11.76438666 38.4157856 11.74311486 36.62734814 11.72900391 34.83886719 C11.70741249 32.25653398 11.66068291 29.67564381 11.609375 27.09375 C11.60814636 26.30383667 11.60691772 25.51392334 11.60565186 24.70007324 C11.45911136 19.05070512 10.09703278 14.75421856 7 10 C4.59998683 7.74544218 3.14223877 7.04741292 0 6 C0 4.02 0 2.04 0 0 Z " fill="#42B26F" transform="translate(103,75)"/>
<path d="M0 0 C0.66 0.33 1.32 0.66 2 1 C2.99 0.67 3.98 0.34 5 0 C5 2.97 5 5.94 5 9 C4.34 9 3.68 9 3 9 C2.67 9.66 2.34 10.32 2 11 C1.01 10.34 0.02 9.68 -1 9 C-0.67 10.093125 -0.34 11.18625 0 12.3125 C1 16 1 16 1 19 C1.33 17.02 1.66 15.04 2 13 C2.99 12.67 3.98 12.34 5 12 C5.92947107 16.70203014 6.13223651 21.24812235 6.09765625 26.0234375 C6.0962413 26.76961334 6.09482635 27.51578918 6.09336853 28.28457642 C6.08780874 30.64809318 6.07526389 33.01151227 6.0625 35.375 C6.0574798 36.98567571 6.0529178 38.59635291 6.04882812 40.20703125 C6.03785251 44.13805799 6.02061596 48.06901248 6 52 C2.93477896 50.71374649 0.4062553 49.31421516 -2 47 C-3.1269564 43.48153168 -2.93557396 40.11345299 -2.78125 36.44921875 C-2.76993042 35.43527542 -2.75861084 34.42133209 -2.74694824 33.37666321 C-2.70223984 30.14500216 -2.60188599 26.91781442 -2.5 23.6875 C-2.45986592 21.4942048 -2.42336503 19.3008399 -2.390625 17.10742188 C-2.30252488 11.73676064 -2.16874792 6.3686998 -2 1 C-1.34 0.67 -0.68 0.34 0 0 Z " fill="#41B06A" transform="translate(124,88)"/>
<path d="M0 0 C0.99 0 1.98 0 3 0 C4.33838733 2.45570175 5.67086232 4.91429916 7 7.375 C7.3815625 8.07367188 7.763125 8.77234375 8.15625 9.4921875 C11 14.7734375 11 14.7734375 11 17 C12.32 17 13.64 17 15 17 C15 17.66 15 18.32 15 19 C14.34 19 13.68 19 13 19 C13.29656494 19.53254395 13.59312988 20.06508789 13.89868164 20.61376953 C19.24553591 30.23127748 24.53140233 39.84406205 29.359375 49.734375 C30.5350932 52.07461408 31.73739727 54.35824872 33.015625 56.640625 C33.34723633 57.23560791 33.67884766 57.83059082 34.02050781 58.44360352 C34.94278369 60.08563158 35.87724944 61.7207959 36.8125 63.35546875 C38 66 38 66 37 69 C31.42824013 60.31460961 26.62591912 51.30939949 22.0625 42.0625 C19.69650966 37.2688612 17.24330504 32.59300502 14.5 28 C10.33057086 20.8524072 6.70060055 13.4012011 3 6 C2.67 21.84 2.34 37.68 2 54 C1.34 54 0.68 54 0 54 C0 38.49 0 22.98 0 7 C-0.66 7 -1.32 7 -2 7 C-2.2475 8.03125 -2.495 9.0625 -2.75 10.125 C-3.83915521 13.95238346 -5.72741088 16.72479803 -8 20 C-9.40487716 22.63295006 -10.71492219 25.30680502 -12 28 C-12.66 28 -13.32 28 -14 28 C-12.74241557 23.93502792 -11.23747765 20.32309788 -9.1796875 16.6015625 C-8.64472656 15.62832031 -8.10976562 14.65507812 -7.55859375 13.65234375 C-7.00300781 12.65332031 -6.44742188 11.65429688 -5.875 10.625 C-5.31167969 9.60277344 -4.74835938 8.58054687 -4.16796875 7.52734375 C-2.7830669 5.01574208 -1.39363545 2.50676281 0 0 Z " fill="#8BCEAA" transform="translate(101,0)"/>
<path d="M0 0 C0.66 0.66 1.32 1.32 2 2 C1.5155542 2.89275635 1.0311084 3.7855127 0.53198242 4.70532227 C-1.79735219 10.17649039 -1.47996646 15.85787827 -1.51171875 21.71484375 C-1.52835571 22.78899536 -1.54499268 23.86314697 -1.56213379 24.96984863 C-1.6197009 28.95886926 -1.65212776 32.94822082 -1.6875 36.9375 C-1.790625 45.868125 -1.89375 54.79875 -2 64 C16.15 64 34.3 64 53 64 C52.67 45.19 52.34 26.38 52 7 C52.66 6.67 53.32 6.34 54 6 C54.81555824 9.5520381 55.10791119 12.78880223 55.0625 16.42944336 C55.053396 17.49082016 55.04429199 18.55219696 55.03491211 19.64573669 C55.01763062 21.35056969 55.01763062 21.35056969 55 23.08984375 C54.99884201 25.50716153 55.00022216 27.92448162 55.00390625 30.34179688 C55.00833197 34.14569984 54.99987039 37.94714025 54.94873047 41.75073242 C54.90349987 45.42750374 54.91537487 49.10043894 54.9375 52.77734375 C54.90978516 53.91187485 54.88207031 55.04640594 54.85351562 56.21531677 C54.85412869 62.25525637 54.85412869 62.25525637 58.07470703 67.08963013 C60.3282759 68.60390542 62.5330201 69.8723998 65 71 C64.67 71.66 64.34 72.32 64 73 C44.2 73 24.4 73 4 73 C4 72.67 4 72.34 4 72 C32.215 71.505 32.215 71.505 61 71 C55.18457266 66.95109861 55.18457266 66.95109861 48.99462891 66.36230469 C47.25350327 66.30269562 47.25350327 66.30269562 45.47720337 66.24188232 C43.62063614 66.2072287 43.62063614 66.2072287 41.7265625 66.171875 C40.44768158 66.1331427 39.16880066 66.0944104 37.85116577 66.05450439 C34.46796607 65.95543551 31.08518656 65.8728039 27.70141602 65.79821777 C24.24195851 65.71788352 20.78314803 65.61581615 17.32421875 65.515625 C10.54989655 65.32379478 3.77529046 65.15362516 -3 65 C-3.06965285 57.41105091 -3.12288865 49.82213516 -3.15543652 42.23293877 C-3.17106162 38.70856268 -3.19224144 35.18440606 -3.22631836 31.66015625 C-3.26528952 27.60414579 -3.27973523 23.5483642 -3.29296875 19.4921875 C-3.30845261 18.23260223 -3.32393646 16.97301697 -3.33988953 15.67526245 C-3.34011612 14.49449127 -3.34034271 13.31372009 -3.34057617 12.09716797 C-3.34723801 11.06236298 -3.35389984 10.02755798 -3.36076355 8.96139526 C-2.93605452 5.47509153 -1.71630139 3.0397143 0 0 Z " fill="#C3E2CC" transform="translate(77,76)"/>
<path d="M0 0 C9.57 0 19.14 0 29 0 C29 1.65 29 3.3 29 5 C27.68 5 26.36 5 25 5 C25 8.63 25 12.26 25 16 C23.02 16 21.04 16 19 16 C19 12.37 19 8.74 19 5 C16.03 5 13.06 5 10 5 C10 8.63 10 12.26 10 16 C8.02 16 6.04 16 4 16 C4 12.37 4 8.74 4 5 C2.68 5 1.36 5 0 5 C0 3.35 0 1.7 0 0 Z " fill="#9D9B9A" transform="translate(33,190)"/>
<path d="M0 0 C0.66 0 1.32 0 2 0 C2.54188965 1.05405029 2.54188965 1.05405029 3.09472656 2.12939453 C9.26049121 14.10842748 15.43213934 26.07579881 21.9375 37.875 C27.31259363 47.6331276 32.44978275 57.50701749 37.54101562 67.41503906 C40.38575628 72.94990791 43.23957174 78.4777614 46.17578125 83.96484375 C46.64741699 84.84760986 47.11905273 85.73037598 47.60498047 86.63989258 C48.46725946 88.24801605 49.33445631 89.85351632 50.20751953 91.45581055 C53 96.67048785 53 96.67048785 53 100 C51.0625 99.25 51.0625 99.25 49 98 C48.4375 96.25 48.4375 96.25 48 94 C45.62437648 89.03210805 43.00823122 84.18167315 40.4375 79.3125 C39.9940625 78.47074219 39.550625 77.62898438 39.09375 76.76171875 C36.98501315 72.75930036 34.87295259 68.75868834 32.75390625 64.76171875 C28.65407609 57.01499889 24.60544133 49.24414634 20.61328125 41.44140625 C20.22103363 40.67553192 19.82878601 39.90965759 19.4246521 39.12057495 C17.44808581 35.2609337 15.4749559 31.39960862 13.5078125 27.53515625 C9.6417517 19.96800416 5.68304228 12.55616905 1.22143555 5.31811523 C0 3 0 3 0 0 Z " fill="#8CCEAB" transform="translate(145,81)"/>
<path d="M0 0 C3.27642756 0.25866533 4.60820723 0.55416685 6.8125 3.0625 C7.204375 3.701875 7.59625 4.34125 8 5 C8.33 3.35 8.66 1.7 9 0 C10.65 0 12.3 0 14 0 C14 5.28 14 10.56 14 16 C12.35 16 10.7 16 9 16 C7.1875 14 7.1875 14 6 12 C5.67 13.32 5.34 14.64 5 16 C3.02 16 1.04 16 -1 16 C-1.02685095 13.52076199 -1.04676547 11.0418116 -1.0625 8.5625 C-1.07506836 7.50192383 -1.07506836 7.50192383 -1.08789062 6.41992188 C-1.09653588 4.61306441 -1.05220011 2.80612397 -1 1 C-0.67 0.67 -0.34 0.34 0 0 Z " fill="#3D3836" transform="translate(155,190)"/>
<path d="M0 0 C3.59059983 0.99738884 4.91172765 1.88720756 7.25 4.875 C10.10074033 9.96560773 10.13756938 14.28614422 10.09765625 20.046875 C10.0962413 20.81807678 10.09482635 21.58927856 10.09336853 22.3838501 C10.08778534 24.83927338 10.07523595 27.29460442 10.0625 29.75 C10.05748283 31.41796743 10.0529203 33.08593629 10.04882812 34.75390625 C10.03782141 38.83597287 10.02056836 42.91797081 10 47 C8.68 46.67 7.36 46.34 6 46 C5.9906543 45.03175293 5.98130859 44.06350586 5.97167969 43.06591797 C5.93163217 39.45364353 5.86583446 35.84220765 5.79248047 32.23046875 C5.76435587 30.6710085 5.74309911 29.11140796 5.72900391 27.55175781 C5.70745458 25.30200827 5.66074943 23.05393026 5.609375 20.8046875 C5.60814636 20.1138205 5.60691772 19.42295349 5.60565186 18.71115112 C5.44678111 13.39173981 3.7733843 9.7733843 0 6 C-0.04080783 4.00041636 -0.04254356 1.99954746 0 0 Z " fill="#4CB473" transform="translate(103,82)"/>
<path d="M0 0 C1.32 0 2.64 0 4 0 C4.39918183 3.49284103 4.22907865 4.69702501 2.0625 7.5625 C1.381875 8.366875 0.70125 9.17125 0 10 C-1.26437338 13.56558361 -1.20510378 17.20064168 -1.31640625 20.953125 C-1.33718735 21.61334656 -1.35796844 22.27356812 -1.37937927 22.95379639 C-1.44450147 25.05243015 -1.50358502 27.15118372 -1.5625 29.25 C-1.60572079 30.67709547 -1.6493362 32.10417905 -1.69335938 33.53125 C-1.80014411 37.02070722 -1.90151566 40.51029753 -2 44 C-3.32 44.66 -4.64 45.32 -6 46 C-6.04962457 41.12534043 -6.08582554 36.25082959 -6.10986328 31.37597656 C-6.11988957 29.71937497 -6.13351406 28.06279093 -6.15087891 26.40625 C-6.17527621 24.01818495 -6.18651694 21.63035492 -6.1953125 19.2421875 C-6.20563507 18.50757294 -6.21595764 17.77295837 -6.22659302 17.01608276 C-6.22783961 11.23730631 -5.28383384 6.96854522 -2.125 2.125 C-1.42375 1.42375 -0.7225 0.7225 0 0 Z " fill="#43B270" transform="translate(98,83)"/>
<path d="M0 0 C2.375 1.3125 2.375 1.3125 4 3 C4 3.99 4 4.98 4 6 C1.03 6 -1.94 6 -5 6 C-5 7.98 -5 9.96 -5 12 C-4.34 11.67 -3.68 11.34 -3 11 C-3.33 9.68 -3.66 8.36 -4 7 C-1.03 7 1.94 7 5 7 C5 9.31 5 11.62 5 14 C0.21788219 16.39105891 -2.6669753 17.6968715 -8 16 C-10.33030405 14.39289376 -10.89531369 13.30600615 -11.8125 10.625 C-12.04015388 7.43784575 -11.54198246 5.79025398 -10 3 C-6.88987138 -0.22120464 -4.38482744 -0.54810343 0 0 Z " fill="#5D5957" transform="translate(182,190)"/>
<path d="M0 0 C3 2 3 2 3.6171875 4.49609375 C3.70226562 5.46675781 3.78734375 6.43742188 3.875 7.4375 C3.97554687 8.40558594 4.07609375 9.37367188 4.1796875 10.37109375 C4 13 4 13 2.6875 14.79296875 C0.13385593 16.61953361 -1.88424247 16.8753697 -5 17 C-7.875 15.8125 -7.875 15.8125 -10 14 C-10 12.68 -10 11.36 -10 10 C-9.34 9.67 -8.68 9.34 -8 9 C-8.66 8.34 -9.32 7.68 -10 7 C-9.8125 4.5 -9.8125 4.5 -9 2 C-5.53001271 -0.31332486 -4.07490752 -0.33957563 0 0 Z " fill="#666260" transform="translate(132,190)"/>
<path d="M0 0 C2.375 1.5 2.375 1.5 4 3 C3.814375 3.639375 3.62875 4.27875 3.4375 4.9375 C3.293125 5.618125 3.14875 6.29875 3 7 C3.33 7.33 3.66 7.66 4 8 C4.375 10.875 4.375 10.875 4 14 C1.19275671 16.55954535 -0.32819779 17.02687209 -4.125 16.875 C-7.02784588 15.99152517 -8.28818502 15.47262164 -10 13 C-10 12.01 -10 11.02 -10 10 C-9.34 9.67 -8.68 9.34 -8 9 C-8.33 8.67 -8.66 8.34 -9 8 C-9.25 5.0625 -9.25 5.0625 -9 2 C-5.51131349 -0.32579101 -4.10281481 -0.41865457 0 0 Z " fill="#413D3A" transform="translate(28,190)"/>
<path d="M0 0 C0.66 0 1.32 0 2 0 C3.10976041 3.32928124 3.12030895 5.80027357 3.11352539 9.30737305 C3.11344986 10.60849533 3.11337433 11.90961761 3.11329651 13.25016785 C3.10818985 14.6706852 3.10297385 16.09120217 3.09765625 17.51171875 C3.09579091 18.96474662 3.09436756 20.41777511 3.09336853 21.87080383 C3.08955246 25.69306172 3.07972993 29.51528155 3.06866455 33.33752441 C3.05843087 37.23868291 3.05386671 41.13984757 3.04882812 45.04101562 C3.03810686 52.69402776 3.02104135 60.34700854 3 68 C6.80768185 66.47152199 9.97152517 64.79395538 13 62 C14.46695831 57.7373634 14.30672412 53.63701471 14.1953125 49.1640625 C14.20335907 47.92957367 14.21140564 46.69508484 14.21969604 45.42318726 C14.23467017 41.48885165 14.18075238 37.55890682 14.125 33.625 C14.11747766 30.95432774 14.12560942 28.28398785 14.1328125 25.61328125 C14.14063737 19.07454074 14.0919371 12.53805786 14 6 C14.33 6 14.66 6 15 6 C15 24.48 15 42.96 15 62 C22.26 62 29.52 62 37 62 C37 62.33 37 62.66 37 63 C36.33468262 63.0093457 35.66936523 63.01869141 34.98388672 63.02832031 C31.94685981 63.08226019 28.91133421 63.16586062 25.875 63.25 C24.82828125 63.26417969 23.7815625 63.27835938 22.703125 63.29296875 C16.54094865 63.48797433 12.72223894 63.91501822 8 68 C12.29 68.33 16.58 68.66 21 69 C21 69.33 21 69.66 21 70 C18.39576408 70.02697137 15.79180756 70.04682489 13.1875 70.0625 C12.44951172 70.07087891 11.71152344 70.07925781 10.95117188 70.08789062 C7.70077932 70.10259828 5.10595105 70.03531702 2 69 C1.505 37.32 1.505 37.32 1 5 C0.34 4.67 -0.32 4.34 -1 4 C-0.67 2.68 -0.34 1.36 0 0 Z " fill="#B6DDBF" transform="translate(59,79)"/>
<path d="M0 0 C1.65 0.33 3.3 0.66 5 1 C5 4.63 5 8.26 5 12 C5.99 11.67 6.98 11.34 8 11 C8.33 7.37 8.66 3.74 9 0 C10.65 0 12.3 0 14 0 C14.0810206 2.10353495 14.13919907 4.20795952 14.1875 6.3125 C14.22230469 7.48425781 14.25710937 8.65601563 14.29296875 9.86328125 C14 13 14 13 12.66796875 14.86328125 C10.10978278 16.60668199 8.07453803 16.87701848 5 17 C0.43478261 14.86956522 0.43478261 14.86956522 -1 12 C-1.09584979 10.1478437 -1.12983606 8.29212847 -1.125 6.4375 C-1.12757813 5.44621094 -1.13015625 4.45492187 -1.1328125 3.43359375 C-1 1 -1 1 0 0 Z " fill="#55514F" transform="translate(138,190)"/>
<path d="M0 0 C1.02054564 2.63128634 1.08692369 3.76266054 0.1015625 6.453125 C-0.38570312 7.37609375 -0.87296875 8.2990625 -1.375 9.25 C-2.19484375 10.81234375 -2.19484375 10.81234375 -3.03125 12.40625 C-6.60946968 18.98122866 -10.28798437 25.49984819 -14 32 C2.11653224 22.51569498 18.15253989 12.93014599 34 3 C34.66 3.66 35.32 4.32 36 5 C35.29206299 5.41660889 34.58412598 5.83321777 33.85473633 6.26245117 C30.50590704 8.23507148 27.15893215 10.21081741 23.8125 12.1875 C22.90186798 12.72481247 22.90186798 12.72481247 21.97283936 13.27297974 C12.73074325 18.7299779 3.56789978 24.29567929 -5.46166992 30.1003418 C-6.25549072 30.60218994 -7.04931152 31.10403809 -7.8671875 31.62109375 C-8.54894043 32.0586499 -9.23069336 32.49620605 -9.93310547 32.94702148 C-12.27172418 34.13842976 -14.41711441 34.59521103 -17 35 C-16.42847705 31.55277851 -15.57607513 28.81759033 -13.92578125 25.7421875 C-13.50796387 24.95626221 -13.09014648 24.17033691 -12.65966797 23.3605957 C-11.99281982 22.13022583 -11.99281982 22.13022583 -11.3125 20.875 C-10.86277832 20.03348389 -10.41305664 19.19196777 -9.94970703 18.32495117 C-8.64028567 15.87936581 -7.32195713 13.43882752 -6 11 C-5.6508252 10.35401855 -5.30165039 9.70803711 -4.94189453 9.04248047 C-3.30744876 6.02118066 -1.66190113 3.00628457 0 0 Z " fill="#CFE9DB" transform="translate(23,147)"/>
<path d="M0 0 C0.76429321 -0.01260864 1.52858643 -0.02521729 2.31604004 -0.03820801 C3.12762573 -0.03011108 3.93921143 -0.02201416 4.77539062 -0.01367188 C6.04545959 -0.01941223 6.04545959 -0.01941223 7.34118652 -0.02526855 C9.1263956 -0.02798326 10.91164475 -0.02065294 12.69677734 -0.00390625 C15.42310602 0.01751108 18.14679977 -0.0037214 20.87304688 -0.02929688 C22.61133392 -0.02665352 24.34961933 -0.02152837 26.08789062 -0.01367188 C26.89947632 -0.0217688 27.71106201 -0.02986572 28.54724121 -0.03820801 C29.69368103 -0.01929504 29.69368103 -0.01929504 30.86328125 0 C31.52992798 0.00318237 32.19657471 0.00636475 32.88342285 0.00964355 C34.93164062 0.51757812 34.93164062 0.51757812 39.93164062 4.51757812 C23.76164062 4.51757812 7.59164062 4.51757812 -9.06835938 4.51757812 C-3.44192513 0.01643073 -3.44192513 0.01643073 0 0 Z " fill="#3CAE67" transform="translate(87.068359375,135.482421875)"/>
<path d="M0 0 C1.65 0 3.3 0 5 0 C7.86034565 5.33931188 9.73130765 10.07943568 11 16 C9.02 16 7.04 16 5 16 C5 15.34 5 14.68 5 14 C3.35 14 1.7 14 0 14 C0 14.66 0 15.32 0 16 C-1.98 16 -3.96 16 -6 16 C-4.43551329 10.3856009 -2.83604813 5.13189662 0 0 Z " fill="#575351" transform="translate(111,190)"/>
<path d="M0 0 C2.375 1.3125 2.375 1.3125 4 3 C4 3.99 4 4.98 4 6 C0.94736336 6.98120464 -0.94736336 6.98120464 -4 6 C-4 7.65 -4 9.3 -4 11 C-3.01 11.33 -2.02 11.66 -1 12 C-0.67 11.01 -0.34 10.02 0 9 C2.475 9.99 2.475 9.99 5 11 C3.875 13.4375 3.875 13.4375 2 16 C-1.60619821 17.25432981 -3.25963619 17.336529 -6.75 15.75 C-9 14 -9 14 -11 11 C-10.86033389 7.1591821 -10.51506009 4.74397569 -8.3125 1.5625 C-5.28110505 -0.48573983 -3.59450128 -0.5241981 0 0 Z " fill="#565350" transform="translate(80,190)"/>
<path d="M0 0 C4.66828315 5.42123205 5.13962268 8.62263908 5.02172852 15.69628906 C5.0073172 16.69202942 5.0073172 16.69202942 4.99261475 17.70788574 C4.95973187 19.89391039 4.91935925 22.07972844 4.87890625 24.265625 C4.85459464 25.78447754 4.8307516 27.30333764 4.80735779 28.82220459 C4.74462036 32.81384928 4.67552462 36.80535948 4.60510254 40.796875 C4.53432551 44.8723337 4.46956467 48.94788751 4.40429688 53.0234375 C4.27541789 61.01573034 4.13982133 69.00789113 4 77 C3.34 76.67 2.68 76.34 2 76 C1.99191315 75.14888641 1.98382629 74.29777283 1.97549438 73.42086792 C1.897452 65.38759378 1.81013227 57.35448504 1.71247292 49.32142448 C1.66259407 45.19185602 1.61626351 41.06231209 1.578125 36.93261719 C1.54116564 32.94488893 1.49477722 28.95737025 1.44193649 24.96982193 C1.423449 23.45088514 1.40832033 21.93190352 1.39665604 20.41289902 C1.37969637 18.28009474 1.35063939 16.14776455 1.31884766 14.01513672 C1.30552399 12.8026828 1.29220032 11.59022888 1.2784729 10.34103394 C0.99471209 6.9365573 0.21685551 4.1804204 -1 1 C-0.67 0.67 -0.34 0.34 0 0 Z " fill="#B7D9C1" transform="translate(141,72)"/>
<path d="M0 0 C8.21766784 -0.36254417 8.21766784 -0.36254417 11.5625 1.1875 C13 3 13 3 13.4375 5.5 C13 8 13 8 11.8125 9.8125 C9.44017475 11.36678206 7.77958655 11.22537188 5 11 C5 12.65 5 14.3 5 16 C3.35 16 1.7 16 0 16 C0 10.72 0 5.44 0 0 Z " fill="#6B6765" transform="translate(94,190)"/>
<path d="M0 0 C0.33 0 0.66 0 1 0 C1 11.22 1 22.44 1 34 C-0.32 34.66 -1.64 35.32 -3 36 C-3.0744013 31.67671196 -3.12871968 27.35376745 -3.16479492 23.0300293 C-3.17984066 21.56056218 -3.20028238 20.09113966 -3.22631836 18.62182617 C-3.26288955 16.5042823 -3.27976801 14.38733435 -3.29296875 12.26953125 C-3.3086792 10.99698486 -3.32438965 9.72443848 -3.34057617 8.41333008 C-2.97834852 4.78300406 -2.18099698 2.88926067 0 0 Z " fill="#42B06F" transform="translate(101,90)"/>
<path d="M0 0 C3 2 3 2 4 5 C4.08397157 7.35680213 4.10728187 9.71594081 4.09765625 12.07421875 C4.0962413 12.7580513 4.09482635 13.44188385 4.09336853 14.1464386 C4.08777876 16.32683722 4.07522822 18.50713251 4.0625 20.6875 C4.05748367 22.16731622 4.052921 23.64713406 4.04882812 25.12695312 C4.03781271 28.75133557 4.02055512 32.3756577 4 36 C2.68 35.34 1.36 34.68 0 34 C0 22.78 0 11.56 0 0 Z " fill="#52B779" transform="translate(103,90)"/>
<path d="M0 0 C0.33 0 0.66 0 1 0 C1 11.88 1 23.76 1 36 C8.43453479 35.88146495 8.43453479 35.88146495 15.8684082 35.72973633 C16.79484131 35.72224365 17.72127441 35.71475098 18.67578125 35.70703125 C20.0975769 35.68346558 20.0975769 35.68346558 21.5480957 35.65942383 C24 36 24 36 27 39 C16.44 39 5.88 39 -5 39 C-3.68 38.01 -2.36 37.02 -1 36 C-0.57407146 33.15584123 -0.39515963 30.68121245 -0.390625 27.83203125 C-0.37408875 27.03721848 -0.35755249 26.2424057 -0.34051514 25.42350769 C-0.2919538 22.88642719 -0.27064721 20.34994633 -0.25 17.8125 C-0.22184696 16.09176657 -0.19192046 14.37106118 -0.16015625 12.65039062 C-0.08619324 8.43364312 -0.03666882 4.21723007 0 0 Z " fill="#6CC189" transform="translate(90,95)"/>
<path d="M0 0 C0 10.56 0 21.12 0 32 C-1.32 31.34 -2.64 30.68 -4 30 C-4.07409401 26.04907941 -4.12857406 22.09842706 -4.16479492 18.14697266 C-4.18732251 16.14080626 -4.2254357 14.13483474 -4.26367188 12.12890625 C-4.27333984 10.87207031 -4.28300781 9.61523438 -4.29296875 8.3203125 C-4.3086792 7.15773926 -4.32438965 5.99516602 -4.34057617 4.79736328 C-4.22818604 3.8742334 -4.1157959 2.95110352 -4 2 C-1 0 -1 0 0 0 Z " fill="#3DAF6A" transform="translate(119,101)"/>
<path d="M0 0 C0.33 0 0.66 0 1 0 C1 6.93 1 13.86 1 21 C-1 18 -1 18 -1 16 C-1.66 16 -2.32 16 -3 16 C-2.7215625 16.86625 -2.7215625 16.86625 -2.4375 17.75 C-1.95976454 20.20692525 -2.24270636 21.64397534 -3 24 C-3.66 24 -4.32 24 -5 24 C-5.33 22.35 -5.66 20.7 -6 19 C-5.34 19 -4.68 19 -4 19 C-4.66 18.01 -5.32 17.02 -6 16 C-6 14.68 -6 13.36 -6 12 C-5.01 12 -4.02 12 -3 12 C-2.34 11.67 -1.68 11.34 -1 11 C-1 8.69 -1 6.38 -1 4 C-1.99 4.33 -2.98 4.66 -4 5 C-4.99 4.67 -5.98 4.34 -7 4 C-7 19.18 -7 34.36 -7 50 C-7.33 50 -7.66 50 -8 50 C-8.02526945 43.3247966 -8.04283268 36.64960543 -8.05493164 29.97436523 C-8.05997325 27.70157409 -8.06680637 25.4287862 -8.07543945 23.15600586 C-8.08751261 19.89696449 -8.09322987 16.63796583 -8.09765625 13.37890625 C-8.10281754 12.35599991 -8.10797882 11.33309357 -8.11329651 10.27919006 C-8.11337204 9.33829025 -8.11344757 8.39739044 -8.11352539 7.42797852 C-8.115746 6.59524918 -8.11796661 5.76251984 -8.12025452 4.90455627 C-8 3 -8 3 -7 2 C-4.66702567 1.95907063 -2.33294775 1.95758277 0 2 C0 1.34 0 0.68 0 0 Z " fill="#60BA7F" transform="translate(129,85)"/>
<path d="M0 0 C1.04780136 2.6728346 1.07843436 3.7879975 0.06640625 6.5234375 C-0.67802734 7.93496094 -0.67802734 7.93496094 -1.4375 9.375 C-1.99566406 10.43976563 -2.55382812 11.50453125 -3.12890625 12.6015625 C-5.32737743 16.59461036 -7.59219864 20.54617331 -9.88525391 24.4855957 C-12.91772465 29.74077071 -15.63834371 35.13126735 -18.29833984 40.58300781 C-21.88596949 47.91481823 -21.88596949 47.91481823 -24 51 C-24.66 51 -25.32 51 -26 51 C-24.66474589 46.63111717 -22.95349786 42.7901498 -20.76953125 38.78125 C-20.45602219 38.20145386 -20.14251312 37.62165771 -19.81950378 37.02429199 C-18.82167315 35.18037477 -17.81756029 33.33998498 -16.8125 31.5 C-15.5035073 29.09537036 -14.19761021 26.68908939 -12.89453125 24.28125 C-12.57316193 23.68771729 -12.2517926 23.09418457 -11.92068481 22.48266602 C-8.46386764 16.06281622 -5.22288751 9.53989937 -2 3 C-1 1 -1 1 0 0 Z " fill="#8BCEAA" transform="translate(50,96)"/>
<path d="M0 0 C0 2.31 0 4.62 0 7 C-1.41601714 7.48108275 -2.83284437 7.95978141 -4.25 8.4375 C-5.03890625 8.70433594 -5.8278125 8.97117187 -6.640625 9.24609375 C-8.74821988 9.91954708 -10.84753973 10.49150595 -13 11 C-13 9.68 -13 8.36 -13 7 C-13.66 7 -14.32 7 -15 7 C-15 6.34 -15 5.68 -15 5 C-15.66 4.67 -16.32 4.34 -17 4 C-11.06561592 0.92291196 -6.70126536 -0.48736475 0 0 Z " fill="#4BB271" transform="translate(102,66)"/>
<path d="M0 0 C0.99 0 1.98 0 3 0 C3 16.83 3 33.66 3 51 C2.67 51 2.34 51 2 51 C2 35.49 2 19.98 2 4 C1.34 4 0.68 4 0 4 C-0.2475 5.03125 -0.495 6.0625 -0.75 7.125 C-1.83915521 10.95238346 -3.72741088 13.72479803 -6 17 C-7.40487716 19.63295006 -8.71492219 22.30680502 -10 25 C-10.66 25 -11.32 25 -12 25 C-10.37317535 19.29676416 -7.66802013 14.31986097 -4.875 9.125 C-4.40707031 8.24585938 -3.93914062 7.36671875 -3.45703125 6.4609375 C-2.3087907 4.30505729 -1.15636097 2.15153223 0 0 Z " fill="#229563" transform="translate(99,3)"/>
<path d="M0 0 C0.99 0 1.98 0 3 0 C4.33838733 2.45570175 5.67086232 4.91429916 7 7.375 C7.3815625 8.07367188 7.763125 8.77234375 8.15625 9.4921875 C11 14.7734375 11 14.7734375 11 17 C12.32 17 13.64 17 15 17 C15 17.66 15 18.32 15 19 C13.68 19.33 12.36 19.66 11 20 C8 16 8 16 3 6 C2.67 21.84 2.34 37.68 2 54 C1.67 54 1.34 54 1 54 C1 37.17 1 20.34 1 3 C0.34 3 -0.32 3 -1 3 C-0.67 2.01 -0.34 1.02 0 0 Z " fill="#A5D4B7" transform="translate(101,0)"/>
<path d="M0 0 C1.65 0 3.3 0 5 0 C6 1 6 1 6.1328125 4.125 C6.12894531 6.043125 6.12894531 6.043125 6.125 8 C6.12757812 9.27875 6.13015625 10.5575 6.1328125 11.875 C6 15 6 15 5 16 C3.35 16 1.7 16 0 16 C0 10.72 0 5.44 0 0 Z " fill="#92908E" transform="translate(86,190)"/>
<path d="M0 0 C0.66 0.33 1.32 0.66 2 1 C2 15.19 2 29.38 2 44 C1.67 44 1.34 44 1 44 C0.67 33.77 0.34 23.54 0 13 C-0.99 13.33 -1.98 13.66 -3 14 C-3.33 10.37 -3.66 6.74 -4 3 C-3.01 3 -2.02 3 -1 3 C-0.67 2.01 -0.34 1.02 0 0 Z " fill="#51B677" transform="translate(118,89)"/>
<path d="M0 0 C0.66 0 1.32 0 2 0 C3.11016344 3.33049032 3.15852609 5.88945666 3.20532227 9.39916992 C3.21522186 10.04334366 3.22512146 10.6875174 3.23532104 11.35121155 C3.26687467 13.4775934 3.29166905 15.60399758 3.31640625 17.73046875 C3.33698109 19.20592322 3.3579777 20.68137186 3.37937927 22.15681458 C3.43454526 26.03819051 3.48397862 29.91961915 3.53222656 33.80108643 C3.58248158 37.76262091 3.63814676 41.72407894 3.69335938 45.68554688 C3.80087399 53.45696649 3.90233377 61.22844972 4 69 C3.34 69 2.68 69 2 69 C1.505 37.32 1.505 37.32 1 5 C0.34 4.67 -0.32 4.34 -1 4 C-0.67 2.68 -0.34 1.36 0 0 Z " fill="#A7D9BA" transform="translate(59,79)"/>
<path d="M0 0 C0.33 0 0.66 0 1 0 C1 11.22 1 22.44 1 34 C2.65 34.66 4.3 35.32 6 36 C6 36.33 6 36.66 6 37 C2.37 37 -1.26 37 -5 37 C-5 30.73 -5 24.46 -5 18 C-4.67 18 -4.34 18 -4 18 C-3.67 23.61 -3.34 29.22 -3 35 C-1.515 34.505 -1.515 34.505 0 34 C0 22.78 0 11.56 0 0 Z " fill="#C7E5CF" transform="translate(102,90)"/>
<path d="M0 0 C4.29 0 8.58 0 13 0 C13 0.66 13 1.32 13 2 C11.68 2 10.36 2 9 2 C9 5.96 9 9.92 9 14 C7.68 14 6.36 14 5 14 C5 10.04 5 6.08 5 2 C3.35 2 1.7 2 0 2 C0 1.34 0 0.68 0 0 Z " fill="#27221F" transform="translate(48,192)"/>
<path d="M0 0 C0.95273477 2.54561101 1.11763116 3.68524527 0.15136719 6.27075195 C-0.29561523 7.08503662 -0.74259766 7.89932129 -1.203125 8.73828125 C-1.68910156 9.64126953 -2.17507812 10.54425781 -2.67578125 11.47460938 C-3.19527344 12.41111328 -3.71476562 13.34761719 -4.25 14.3125 C-5.25758925 16.16146493 -6.26285012 18.01170086 -7.265625 19.86328125 C-7.74346436 20.74185791 -8.22130371 21.62043457 -8.71362305 22.52563477 C-9.8299324 24.67287244 -10.80883849 26.80823871 -11.72265625 29.046875 C-13.06468931 32.14955694 -14.12050507 33.31202021 -17 35 C-15.60720622 30.43236625 -13.74216134 26.28296982 -11.5234375 22.0703125 C-11.19332672 21.43511688 -10.86321594 20.79992126 -10.52310181 20.14547729 C-9.47783734 18.13648152 -8.42653337 16.13072039 -7.375 14.125 C-6.66105535 12.75541833 -5.94750964 11.38562861 -5.234375 10.015625 C-3.49418696 6.6746601 -1.74857888 3.33658046 0 0 Z " fill="#8ACFAB" transform="translate(82,35)"/>
<path d="M0 0 C1.04780136 2.6728346 1.07843436 3.7879975 0.06640625 6.5234375 C-0.42988281 7.46445313 -0.92617188 8.40546875 -1.4375 9.375 C-1.98535156 10.42300781 -2.53320312 11.47101563 -3.09765625 12.55078125 C-4.43786812 14.98077525 -5.79326217 17.3921542 -7.18359375 19.79296875 C-7.54718994 20.42090332 -7.91078613 21.04883789 -8.28540039 21.69580078 C-9.00224737 22.92390117 -9.726518 24.14770342 -10.45874023 25.36669922 C-12.10006696 28.15035737 -13 29.70559613 -13 33 C-13.99 33 -14.98 33 -16 33 C-15.07496915 28.87011561 -13.28605641 25.31330475 -11.375 21.5625 C-11.02179687 20.86253906 -10.66859375 20.16257813 -10.3046875 19.44140625 C-6.98555298 12.89796963 -3.52562688 6.43426906 0 0 Z " fill="#8BD0AE" transform="translate(23,147)"/>
<path d="M0 0 C3.96 0 7.92 0 12 0 C12 0.66 12 1.32 12 2 C10.68 2 9.36 2 8 2 C8 5.96 8 9.92 8 14 C6.68 14 5.36 14 4 14 C4 10.04 4 6.08 4 2 C2.68 2 1.36 2 0 2 C0 1.34 0 0.68 0 0 Z " fill="#241F1C" transform="translate(34,192)"/>
<path d="M0 0 C3.3 0 6.6 0 10 0 C10 2.64 10 5.28 10 8 C5.545 8.495 5.545 8.495 1 9 C1.20625 7.88625 1.4125 6.7725 1.625 5.625 C1.74875 4.42875 1.8725 3.2325 2 2 C1.34 1.34 0.68 0.68 0 0 Z " fill="#48B171" transform="translate(92,56)"/>
<path d="M0 0 C0.99 0 1.98 0 3 0 C3 12.87 3 25.74 3 39 C2.67 39 2.34 39 2 39 C1.505 21.675 1.505 21.675 1 4 C-0.65 6.97 -2.3 9.94 -4 13 C-4.66 13 -5.32 13 -6 13 C-4.58707905 8.1725201 -2.57025846 4.2837641 0 0 Z " fill="#18905B" transform="translate(57,83)"/>
<path d="M0 0 C2.375 1.3125 2.375 1.3125 4 3 C4 3.99 4 4.98 4 6 C0.69903842 6.8252404 -1.8033 7.37001429 -5 6 C-5.33 5.01 -5.66 4.02 -6 3 C-7.01111093 6.04913228 -7.01111093 6.04913228 -6 9 C-6.99 8.67 -7.98 8.34 -9 8 C-9.1875 5.125 -9.1875 5.125 -9 2 C-5.51131349 -0.32579101 -4.10281481 -0.41865457 0 0 Z " fill="#7F7C7B" transform="translate(28,190)"/>
<path d="M0 0 C0.66 0 1.32 0 2 0 C4.00166502 3.78620413 5.99524797 7.57651781 7.98144531 11.37084961 C8.65827322 12.66107309 9.33729724 13.950147 10.01855469 15.23803711 C10.9973367 17.08930484 11.96814963 18.94456137 12.9375 20.80078125 C13.52402344 21.91622314 14.11054688 23.03166504 14.71484375 24.1809082 C16 27 16 27 16 30 C13.28856231 27.58398162 11.78934793 25.02535106 10.1171875 21.81640625 C9.58996094 20.80642578 9.06273437 19.79644531 8.51953125 18.75585938 C7.97683594 17.70205078 7.43414062 16.64824219 6.875 15.5625 C6.32457031 14.51255859 5.77414063 13.46261719 5.20703125 12.38085938 C0.77375221 3.83563233 0.77375221 3.83563233 0 0 Z " fill="#98D3B2" transform="translate(145,81)"/>
<path d="M0 0 C0.66 0.33 1.32 0.66 2 1 C1.835 1.639375 1.67 2.27875 1.5 2.9375 C0.84067485 6.97586652 0.91996221 10.91807258 1 15 C-0.32 15.33 -1.64 15.66 -3 16 C-3.08075665 13.70890403 -3.13907731 11.41700733 -3.1875 9.125 C-3.22230469 7.84882812 -3.25710937 6.57265625 -3.29296875 5.2578125 C-3.19628906 4.18273437 -3.09960938 3.10765625 -3 2 C-2.01 1.34 -1.02 0.68 0 0 Z " fill="#38AE69" transform="translate(89,86)"/>
<path d="M0 0 C2.97 0.495 2.97 0.495 6 1 C5.01 1.495 5.01 1.495 4 2 C4 3.65 4 5.3 4 7 C4.66 7.33 5.32 7.66 6 8 C5.01 8.495 5.01 8.495 4 9 C3.34444881 11.52733235 3.34444881 11.52733235 3 14 C2.01 14 1.02 14 0 14 C0 9.38 0 4.76 0 0 Z " fill="#25201D" transform="translate(95,191)"/>
<path d="M0 0 C0.33 0.66 0.66 1.32 1 2 C1.66 2 2.32 2 3 2 C3 7.94 3 13.88 3 20 C2.01 19.34 1.02 18.68 0 18 C-0.34057617 16.12060547 -0.34057617 16.12060547 -0.29296875 13.8671875 C-0.28330078 13.06152344 -0.27363281 12.25585938 -0.26367188 11.42578125 C-0.23853516 10.58402344 -0.21339844 9.74226563 -0.1875 8.875 C-0.17396484 8.02550781 -0.16042969 7.17601563 -0.14648438 6.30078125 C-0.11108219 4.20025163 -0.05727401 2.10004707 0 0 Z " fill="#44B16E" transform="translate(104,106)"/>
<path d="M0 0 C1.13206943 3.40365613 1.04690948 3.8924991 -0.5 7.4375 C-1.32269237 8.96411578 -2.15800882 10.48394284 -3 12 C-3.92963867 13.73413368 -4.85921908 15.46829932 -5.78710938 17.20336914 C-7.18253599 19.80705689 -8.59099952 22.40363956 -10 25 C-10.66 25 -11.32 25 -12 25 C-10.37317535 19.29676416 -7.66802013 14.31986097 -4.875 9.125 C-4.40707031 8.24585938 -3.93914062 7.36671875 -3.45703125 6.4609375 C-2.3087907 4.30505729 -1.15636097 2.15153223 0 0 Z " fill="#93D0B1" transform="translate(99,3)"/>
<path d="M0 0 C0.99 0 1.98 0 3 0 C3 3.96 3 7.92 3 12 C1.68 12.33 0.36 12.66 -1 13 C-1.02686553 11.02090602 -1.04633375 9.04171029 -1.0625 7.0625 C-1.07410156 5.96035156 -1.08570312 4.85820313 -1.09765625 3.72265625 C-1 1 -1 1 0 0 Z " fill="#39AE69" transform="translate(87,119)"/>
<path d="M0 0 C2.92118443 2.94377091 3.95099387 4.5010555 4.36230469 8.6887207 C4.32009085 10.10186957 4.25546191 11.51447513 4.171875 12.92578125 C4.14401917 13.67337204 4.11616333 14.42096283 4.08746338 15.19120789 C3.9944939 17.56626141 3.87268972 19.93881475 3.75 22.3125 C3.68168334 23.9276547 3.6152563 25.54289051 3.55078125 27.15820312 C3.3890557 31.10674328 3.20146911 35.05329622 3 39 C2.67 39 2.34 39 2 39 C1.98018066 38.0620459 1.96036133 37.1240918 1.93994141 36.15771484 C1.8615614 32.65746299 1.77485919 29.15761836 1.68261719 25.65771484 C1.64447888 24.146727 1.60960028 22.63565304 1.578125 21.12451172 C1.53214295 18.94467522 1.47420675 16.7654238 1.4140625 14.5859375 C1.3826416 13.2767334 1.3512207 11.9675293 1.31884766 10.61865234 C1.00909912 7.10326736 0.26512979 4.28045936 -1 1 C-0.67 0.67 -0.34 0.34 0 0 Z " fill="#C1E1C7" transform="translate(141,72)"/>
<path d="M0 0 C0.66 0.33 1.32 0.66 2 1 C0.98679687 1.8353125 0.98679687 1.8353125 -0.046875 2.6875 C-5.61555098 7.45145402 -9.19862599 11.23001281 -12 18 C-12.66 18.99 -13.32 19.98 -14 21 C-14.97365381 18.40358984 -15.20234642 16.60472672 -14.31640625 13.95703125 C-12.37616758 9.81231908 -11.21359897 7.92959205 -7 6 C-5.71983165 4.99564028 -4.46871878 3.95309739 -3.25 2.875 C-2.63640625 2.33617187 -2.0228125 1.79734375 -1.390625 1.2421875 C-0.70226562 0.62730469 -0.70226562 0.62730469 0 0 Z " fill="#DCEEDE" transform="translate(75,61)"/>
<path d="M0 0 C1.67542976 0.28604898 3.34385343 0.61781233 5 1 C5 1.99 5 2.98 5 4 C2.525 3.01 2.525 3.01 0 2 C0 6.29 0 10.58 0 15 C0.99 15 1.98 15 3 15 C3 12.69 3 10.38 3 8 C3.66 8 4.32 8 5 8 C6.09658936 11.28976808 5.79953138 12.71303767 5 16 C3.02 16 1.04 16 -1 16 C-1.02685095 13.52076199 -1.04676547 11.0418116 -1.0625 8.5625 C-1.07506836 7.50192383 -1.07506836 7.50192383 -1.08789062 6.41992188 C-1.09653588 4.61306441 -1.05220011 2.80612397 -1 1 C-0.67 0.67 -0.34 0.34 0 0 Z " fill="#A8A6A4" transform="translate(155,190)"/>
<path d="M0 0 C3.54064733 1.18021578 3.76493128 1.81848487 5.515625 4.96484375 C5.96164063 5.76470703 6.40765625 6.56457031 6.8671875 7.38867188 C7.32351562 8.22978516 7.77984375 9.07089844 8.25 9.9375 C8.72179687 10.77474609 9.19359375 11.61199219 9.6796875 12.47460938 C12.23791806 17.12355761 12.23791806 17.12355761 13 19 C12.67 19.66 12.34 20.32 12 21 C9.85275171 18.99539307 8.36091913 17.12641589 6.9921875 14.53125 C6.47205078 13.55091797 6.47205078 13.55091797 5.94140625 12.55078125 C5.58949219 11.87402344 5.23757812 11.19726562 4.875 10.5 C4.51535156 9.82324219 4.15570313 9.14648438 3.78515625 8.44921875 C2.31750476 5.66232997 0.99769679 2.99309036 0 0 Z " fill="#A0D7B9" transform="translate(112,20)"/>
<path d="M0 0 C0.66 0.33 1.32 0.66 2 1 C2 4.96 2 8.92 2 13 C1.01 13.33 0.02 13.66 -1 14 C-1.22142255 12.04310341 -1.4267568 10.08438048 -1.625 8.125 C-1.74101563 7.03445312 -1.85703125 5.94390625 -1.9765625 4.8203125 C-1.98429687 3.88960938 -1.99203125 2.95890625 -2 2 C-1.34 1.34 -0.68 0.68 0 0 Z " fill="#41B06C" transform="translate(110,89)"/>
<path d="M0 0 C3.87037407 1.29012469 4.26188495 2.66433765 6.1875 6.1875 C6.71730469 7.12980469 7.24710938 8.07210937 7.79296875 9.04296875 C9.10632073 12.26046858 9.22937524 14.55937133 9 18 C6.44624385 14.82505993 4.62552847 11.51896339 2.8125 7.875 C2.28269531 6.82054687 1.75289062 5.76609375 1.20703125 4.6796875 C0 2 0 2 0 0 Z " fill="#86CCA6" transform="translate(170,129)"/>
<path d="M0 0 C0.33 0 0.66 0 1 0 C1 11.22 1 22.44 1 34 C0.67 34 0.34 34 0 34 C-0.14330576 29.9432275 -0.28569503 25.88642396 -0.42724609 21.82958984 C-0.47549846 20.4503493 -0.52399846 19.07111739 -0.57275391 17.69189453 C-0.64290893 15.70607777 -0.71209099 13.7202267 -0.78125 11.734375 C-0.82314453 10.54038086 -0.86503906 9.34638672 -0.90820312 8.11621094 C-0.97805473 5.74497189 -1 3.37226766 -1 1 C-0.67 0.67 -0.34 0.34 0 0 Z " fill="#4EB679" transform="translate(101,90)"/>
<path d="M0 0 C0 0.33 0 0.66 0 1 C-1.19625 1.185625 -2.3925 1.37125 -3.625 1.5625 C-8.71538479 2.82607069 -11.19801012 5.70484446 -14 10 C-15.37050596 12.74547874 -15.37050596 12.74547874 -16 15 C-16.66 15 -17.32 15 -18 15 C-16.47154624 8.50407151 -14.35879847 4.31699011 -8.5625 0.625 C-4.92108099 -1.03599814 -3.6776466 -1.33732604 0 0 Z " fill="#CCE6D0" transform="translate(102,74)"/>
<path d="M0 0 C0.99 0 1.98 0 3 0 C3 4.29 3 8.58 3 13 C2.01 13 1.02 13 0 13 C0 8.71 0 4.42 0 0 Z " fill="#1F1A17" transform="translate(87,192)"/>
<path d="M0 0 C1.17323342 3.67238131 0.67250669 5.71636928 -0.96484375 9.25 C-2.55864506 11.94442636 -4.67941112 13.93028559 -7 16 C-5.35433477 10.31497465 -2.70967216 5.23318364 0 0 Z " fill="#92D2B1" transform="translate(72,54)"/>
<path d="M0 0 C0.66 0 1.32 0 2 0 C3.03572896 1.74122549 4.0531252 3.49336595 5.0625 5.25 C5.63097656 6.22453125 6.19945312 7.1990625 6.78515625 8.203125 C8 11 8 11 7.68359375 13.359375 C7.45800781 13.90078125 7.23242188 14.4421875 7 15 C5.82539808 13.06730041 4.66055528 11.12866687 3.5 9.1875 C2.8503125 8.10855469 2.200625 7.02960938 1.53125 5.91796875 C0 3 0 3 0 0 Z " fill="#8FCFAA" transform="translate(145,81)"/>
<path d="M0 0 C0.84119973 2.39957614 1.11193544 3.64922558 0.328125 6.10546875 C-0.02765625 6.79253906 -0.3834375 7.47960937 -0.75 8.1875 C-1.26820312 9.22970703 -1.26820312 9.22970703 -1.796875 10.29296875 C-3 12 -3 12 -6 13 C-4.31326082 8.50202887 -2.18326108 4.27113698 0 0 Z " fill="#9ED1B1" transform="translate(23,147)"/>
<path d="M0 0 C-1 2 -1 2 -3.0625 3.375 C-3.701875 3.91125 -4.34125 4.4475 -5 5 C-5 6.32 -5 7.64 -5 9 C-5.66 9 -6.32 9 -7 9 C-8.33157895 3.55263158 -8.33157895 3.55263158 -6.875 1.125 C-4.46277487 -0.32233508 -2.7648665 -0.22417836 0 0 Z " fill="#3AB06C" transform="translate(99,76)"/>
<path d="M0 0 C1.0169313 2.65498232 1.13022151 3.69155375 0.00390625 6.359375 C-0.47175781 7.14828125 -0.94742188 7.9371875 -1.4375 8.75 C-1.91058594 9.54921875 -2.38367187 10.3484375 -2.87109375 11.171875 C-3.24363281 11.77515625 -3.61617187 12.3784375 -4 13 C-4.66 13 -5.32 13 -6 13 C-4.58707905 8.1725201 -2.57025846 4.2837641 0 0 Z " fill="#8ACFAC" transform="translate(57,83)"/>
<path d="M0 0 C0.99 0 1.98 0 3 0 C2.67 6.6 2.34 13.2 2 20 C1.67 20 1.34 20 1 20 C1 14.39 1 8.78 1 3 C0.34 3 -0.32 3 -1 3 C-0.67 2.01 -0.34 1.02 0 0 Z " fill="#B8DDC2" transform="translate(101,0)"/>
<path d="M0 0 C2 1 2 1 4 4 C4 4.99 4 5.98 4 7 C1.36 7.33 -1.28 7.66 -4 8 C-4 7.34 -4 6.68 -4 6 C-2.68 5.67 -1.36 5.34 0 5 C0 3.35 0 1.7 0 0 Z " fill="#3EB06C" transform="translate(125,80)"/>
<path d="M0 0 C0.99 0 1.98 0 3 0 C3.1875 3.375 3.1875 3.375 3 7 C2.01 7.66 1.02 8.32 0 9 C0 6.03 0 3.06 0 0 Z " fill="#46B271" transform="translate(98,117)"/>
<path d="M0 0 C1.9375 0.8125 1.9375 0.8125 4 2 C4.33 2.99 4.66 3.98 5 5 C5.66 5.33 6.32 5.66 7 6 C6.67 6.99 6.34 7.98 6 9 C4.02 8.01 2.04 7.02 0 6 C0 4.02 0 2.04 0 0 Z " fill="#4EB87D" transform="translate(103,75)"/>
<path d="M0 0 C1.4540625 0.0309375 1.4540625 0.0309375 2.9375 0.0625 C3.2675 1.3825 3.5975 2.7025 3.9375 4.0625 C0.56287285 3.51526317 -1.14485 3.0076 -4.0625 1.0625 C-3.0625 0.0625 -3.0625 0.0625 0 0 Z " fill="#3E3A37" transform="translate(131.0625,190.9375)"/>
<path d="M0 0 C0.598125 0.20625 1.19625 0.4125 1.8125 0.625 C-2.9375 5.5 -2.9375 5.5 -5.1875 6.625 C-5.375 4.25 -5.375 4.25 -5.1875 1.625 C-2.1875 -0.375 -2.1875 -0.375 0 0 Z " fill="#4AB47A" transform="translate(84.1875,67.375)"/>
<path d="M0 0 C1.32 0 2.64 0 4 0 C4 0.66 4 1.32 4 2 C5.32 2.33 6.64 2.66 8 3 C7.67 3.33 7.34 3.66 7 4 C4.66055264 3.71269945 2.3260857 3.38063221 0 3 C0 2.01 0 1.02 0 0 Z " fill="#282320" transform="translate(123,201)"/>
<path d="M0 0 C2.0625 2.1875 2.0625 2.1875 4 5 C3.75 7.8125 3.75 7.8125 3 10 C1.00902154 7.01353231 0.05875074 4.40312738 -1 1 C-0.67 0.67 -0.34 0.34 0 0 Z " fill="#DEEEE2" transform="translate(141,72)"/>
<path d="M0 0 C0.92232422 0.46792969 0.92232422 0.46792969 1.86328125 0.9453125 C3.98337431 2.02630771 3.98337431 2.02630771 6.1875 2.875 C8 4 8 4 8.75 6.125 C8.87375 7.053125 8.87375 7.053125 9 8 C8.01 8 7.02 8 6 8 C4.39453125 6.25 4.39453125 6.25 2.8125 4 C2.28269531 3.2575 1.75289062 2.515 1.20703125 1.75 C0.80871094 1.1725 0.41039062 0.595 0 0 Z " fill="#DBEDDD" transform="translate(132,64)"/>
<path d="M0 0 C0.66 0 1.32 0 2 0 C3.09658936 3.28976808 2.79953138 4.71303767 2 8 C0.35 8 -1.3 8 -3 8 C-2.01 7.67 -1.02 7.34 0 7 C0 4.69 0 2.38 0 0 Z " fill="#908E8C" transform="translate(158,198)"/>
<path d="M0 0 C2.475 0.495 2.475 0.495 5 1 C5.33 1.99 5.66 2.98 6 4 C4.35 4 2.7 4 1 4 C0.67 2.68 0.34 1.36 0 0 Z " fill="#302B29" transform="translate(19,201)"/>
<path d="M0 0 C0 0.66 0 1.32 0 2 C-1.32 2 -2.64 2 -4 2 C-4 1.34 -4 0.68 -4 0 C-5.32 0 -6.64 0 -8 0 C-8.33 0.99 -8.66 1.98 -9 3 C-9 1.68 -9 0.36 -9 -1 C-5.38055101 -2.34053666 -3.42632833 -1.61798838 0 0 Z " fill="#D6D5D4" transform="translate(131,201)"/>
<path d="M0 0 C0 0.99 0 1.98 0 3 C-2.66666667 2.33333333 -5.33333333 1.66666667 -8 1 C-8.33 1.66 -8.66 2.32 -9 3 C-9 2.01 -9 1.02 -9 0 C-5.67465243 -1.10844919 -3.37817425 -0.84454356 0 0 Z " fill="#DEDEDD" transform="translate(27,200)"/>
<path d="M0 0 C1.0625 1.875 1.0625 1.875 2 4 C1.67 4.66 1.34 5.32 1 6 C-0.98 6 -2.96 6 -5 6 C-3.35 4.02 -1.7 2.04 0 0 Z " fill="#49B273" transform="translate(84,71)"/>
<path d="M0 0 C-0.53625 0.2475 -1.0725 0.495 -1.625 0.75 C-4.56424252 2.29696975 -7.25754408 4.13014369 -10 6 C-7.83322503 -0.036016 -6.28508493 -0.13663228 0 0 Z " fill="#8A8886" transform="translate(80,190)"/>
<path d="M0 0 C0.33 0.66 0.66 1.32 1 2 C1.66 2 2.32 2 3 2 C2.74438677 4.3431213 2.40729228 6.67843403 2 9 C1.01 9.495 1.01 9.495 0 10 C0 6.7 0 3.4 0 0 Z " fill="#38AE6A" transform="translate(104,106)"/>
<path d="M0 0 C2.475 0.495 2.475 0.495 5 1 C5.33 1.99 5.66 2.98 6 4 C5.01 4 4.02 4 3 4 C2.67 3.67 2.34 3.34 2 3 C1.34 3.66 0.68 4.32 0 5 C0 3.35 0 1.7 0 0 Z " fill="#37B06B" transform="translate(104,75)"/>
<path d="M0 0 C0.33 0.66 0.66 1.32 1 2 C1.66 2 2.32 2 3 2 C2.625 4.4375 2.625 4.4375 2 7 C1.01 7.495 1.01 7.495 0 8 C0 5.36 0 2.72 0 0 Z " fill="#50B577" transform="translate(103,56)"/>
<path d="M0 0 C3 1 3 1 5 4 C4.625 6.1875 4.625 6.1875 4 8 C0 2.25 0 2.25 0 0 Z " fill="#81C9A8" transform="translate(112,20)"/>
<path d="" fill="#F1E9F9" transform="translate(0,0)"/>
<path d="" fill="#F6F2F4" transform="translate(0,0)"/>
<path d="" fill="#F9F2F0" transform="translate(0,0)"/>
<path d="" fill="#FDF8F4" transform="translate(0,0)"/>
<path d="" fill="#FAF4F0" transform="translate(0,0)"/>
<path d="" fill="#F0ECEE" transform="translate(0,0)"/>
</svg>
